<?xml version="1.0" encoding="utf-8" standalone="no"?>
<!DOCTYPE svg PUBLIC "-//W3C//DTD SVG 1.1//EN"
  "http://www.w3.org/Graphics/SVG/1.1/DTD/svg11.dtd">
<svg xmlns:xlink="http://www.w3.org/1999/xlink" width="576pt" height="576pt" viewBox="0 0 576 576" xmlns="http://www.w3.org/2000/svg" version="1.1">
 <metadata>
  <rdf:RDF xmlns:dc="http://purl.org/dc/elements/1.1/" xmlns:cc="http://creativecommons.org/ns#" xmlns:rdf="http://www.w3.org/1999/02/22-rdf-syntax-ns#">
   <cc:Work>
    <dc:type rdf:resource="http://purl.org/dc/dcmitype/StillImage"/>
    <dc:date>2026-02-23T20:26:48.362084</dc:date>
    <dc:format>image/svg+xml</dc:format>
    <dc:creator>
     <cc:Agent>
      <dc:title>Matplotlib v3.8.0, https://matplotlib.org/</dc:title>
     </cc:Agent>
    </dc:creator>
   </cc:Work>
  </rdf:RDF>
 </metadata>
 <defs>
  <style type="text/css">*{stroke-linejoin: round; stroke-linecap: butt}</style>
 </defs>
 <g id="figure_1">
  <g id="patch_1">
   <path d="M 0 576 
L 576 576 
L 576 0 
L 0 0 
z
" style="fill: #ffffff"/>
  </g>
  <g id="axes_1">
   <g id="patch_2">
    <path d="M 44.57 186.4 
L 565.2 186.4 
L 565.2 26.88 
L 44.57 26.88 
z
" style="fill: #ffffff"/>
   </g>
   <g id="matplotlib.axis_1">
    <g id="xtick_1">
     <g id="line2d_1">
      <defs>
       <path id="m68b07a1425" d="M 0 0 
L 0 3.5 
" style="stroke: #000000; stroke-width: 0.8"/>
      </defs>
      <g>
       <use xlink:href="#m68b07a1425" x="66.532482" y="186.4" style="stroke: #000000; stroke-width: 0.8"/>
      </g>
     </g>
    </g>
    <g id="xtick_2">
     <g id="line2d_2">
      <g>
       <use xlink:href="#m68b07a1425" x="134.633201" y="186.4" style="stroke: #000000; stroke-width: 0.8"/>
      </g>
     </g>
    </g>
    <g id="xtick_3">
     <g id="line2d_3">
      <g>
       <use xlink:href="#m68b07a1425" x="202.733921" y="186.4" style="stroke: #000000; stroke-width: 0.8"/>
      </g>
     </g>
    </g>
    <g id="xtick_4">
     <g id="line2d_4">
      <g>
       <use xlink:href="#m68b07a1425" x="270.83464" y="186.4" style="stroke: #000000; stroke-width: 0.8"/>
      </g>
     </g>
    </g>
    <g id="xtick_5">
     <g id="line2d_5">
      <g>
       <use xlink:href="#m68b07a1425" x="338.93536" y="186.4" style="stroke: #000000; stroke-width: 0.8"/>
      </g>
     </g>
    </g>
    <g id="xtick_6">
     <g id="line2d_6">
      <g>
       <use xlink:href="#m68b07a1425" x="407.036079" y="186.4" style="stroke: #000000; stroke-width: 0.8"/>
      </g>
     </g>
    </g>
    <g id="xtick_7">
     <g id="line2d_7">
      <g>
       <use xlink:href="#m68b07a1425" x="475.136799" y="186.4" style="stroke: #000000; stroke-width: 0.8"/>
      </g>
     </g>
    </g>
    <g id="xtick_8">
     <g id="line2d_8">
      <g>
       <use xlink:href="#m68b07a1425" x="543.237518" y="186.4" style="stroke: #000000; stroke-width: 0.8"/>
      </g>
     </g>
    </g>
   </g>
   <g id="matplotlib.axis_2">
    <g id="ytick_1">
     <g id="line2d_9">
      <defs>
       <path id="m202c63bbed" d="M 0 0 
L -3.5 0 
" style="stroke: #000000; stroke-width: 0.8"/>
      </defs>
      <g>
       <use xlink:href="#m202c63bbed" x="44.57" y="179.183294" style="stroke: #000000; stroke-width: 0.8"/>
      </g>
     </g>
     <g id="text_1">
      <!-- 0 -->
      <g transform="translate(31.2075 182.982513) scale(0.1 -0.1)">
       <defs>
        <path id="DejaVuSans-30" d="M 2034 4250 
Q 1547 4250 1301 3770 
Q 1056 3291 1056 2328 
Q 1056 1369 1301 889 
Q 1547 409 2034 409 
Q 2525 409 2770 889 
Q 3016 1369 3016 2328 
Q 3016 3291 2770 3770 
Q 2525 4250 2034 4250 
z
M 2034 4750 
Q 2819 4750 3233 4129 
Q 3647 3509 3647 2328 
Q 3647 1150 3233 529 
Q 2819 -91 2034 -91 
Q 1250 -91 836 529 
Q 422 1150 422 2328 
Q 422 3509 836 4129 
Q 1250 4750 2034 4750 
z
" transform="scale(0.015625)"/>
       </defs>
       <use xlink:href="#DejaVuSans-30"/>
      </g>
     </g>
    </g>
    <g id="ytick_2">
     <g id="line2d_10">
      <g>
       <use xlink:href="#m202c63bbed" x="44.57" y="146.128567" style="stroke: #000000; stroke-width: 0.8"/>
      </g>
     </g>
     <g id="text_2">
      <!-- 1 -->
      <g transform="translate(31.2075 149.927786) scale(0.1 -0.1)">
       <defs>
        <path id="DejaVuSans-31" d="M 794 531 
L 1825 531 
L 1825 4091 
L 703 3866 
L 703 4441 
L 1819 4666 
L 2450 4666 
L 2450 531 
L 3481 531 
L 3481 0 
L 794 0 
L 794 531 
z
" transform="scale(0.015625)"/>
       </defs>
       <use xlink:href="#DejaVuSans-31"/>
      </g>
     </g>
    </g>
    <g id="ytick_3">
     <g id="line2d_11">
      <g>
       <use xlink:href="#m202c63bbed" x="44.57" y="113.07384" style="stroke: #000000; stroke-width: 0.8"/>
      </g>
     </g>
     <g id="text_3">
      <!-- 2 -->
      <g transform="translate(31.2075 116.873059) scale(0.1 -0.1)">
       <defs>
        <path id="DejaVuSans-32" d="M 1228 531 
L 3431 531 
L 3431 0 
L 469 0 
L 469 531 
Q 828 903 1448 1529 
Q 2069 2156 2228 2338 
Q 2531 2678 2651 2914 
Q 2772 3150 2772 3378 
Q 2772 3750 2511 3984 
Q 2250 4219 1831 4219 
Q 1534 4219 1204 4116 
Q 875 4013 500 3803 
L 500 4441 
Q 881 4594 1212 4672 
Q 1544 4750 1819 4750 
Q 2544 4750 2975 4387 
Q 3406 4025 3406 3419 
Q 3406 3131 3298 2873 
Q 3191 2616 2906 2266 
Q 2828 2175 2409 1742 
Q 1991 1309 1228 531 
z
" transform="scale(0.015625)"/>
       </defs>
       <use xlink:href="#DejaVuSans-32"/>
      </g>
     </g>
    </g>
    <g id="ytick_4">
     <g id="line2d_12">
      <g>
       <use xlink:href="#m202c63bbed" x="44.57" y="80.019113" style="stroke: #000000; stroke-width: 0.8"/>
      </g>
     </g>
     <g id="text_4">
      <!-- 3 -->
      <g transform="translate(31.2075 83.818332) scale(0.1 -0.1)">
       <defs>
        <path id="DejaVuSans-33" d="M 2597 2516 
Q 3050 2419 3304 2112 
Q 3559 1806 3559 1356 
Q 3559 666 3084 287 
Q 2609 -91 1734 -91 
Q 1441 -91 1130 -33 
Q 819 25 488 141 
L 488 750 
Q 750 597 1062 519 
Q 1375 441 1716 441 
Q 2309 441 2620 675 
Q 2931 909 2931 1356 
Q 2931 1769 2642 2001 
Q 2353 2234 1838 2234 
L 1294 2234 
L 1294 2753 
L 1863 2753 
Q 2328 2753 2575 2939 
Q 2822 3125 2822 3475 
Q 2822 3834 2567 4026 
Q 2313 4219 1838 4219 
Q 1578 4219 1281 4162 
Q 984 4106 628 3988 
L 628 4550 
Q 988 4650 1302 4700 
Q 1616 4750 1894 4750 
Q 2613 4750 3031 4423 
Q 3450 4097 3450 3541 
Q 3450 3153 3228 2886 
Q 3006 2619 2597 2516 
z
" transform="scale(0.015625)"/>
       </defs>
       <use xlink:href="#DejaVuSans-33"/>
      </g>
     </g>
    </g>
    <g id="ytick_5">
     <g id="line2d_13">
      <g>
       <use xlink:href="#m202c63bbed" x="44.57" y="46.964386" style="stroke: #000000; stroke-width: 0.8"/>
      </g>
     </g>
     <g id="text_5">
      <!-- 4 -->
      <g transform="translate(31.2075 50.763604) scale(0.1 -0.1)">
       <defs>
        <path id="DejaVuSans-34" d="M 2419 4116 
L 825 1625 
L 2419 1625 
L 2419 4116 
z
M 2253 4666 
L 3047 4666 
L 3047 1625 
L 3713 1625 
L 3713 1100 
L 3047 1100 
L 3047 0 
L 2419 0 
L 2419 1100 
L 313 1100 
L 313 1709 
L 2253 4666 
z
" transform="scale(0.015625)"/>
       </defs>
       <use xlink:href="#DejaVuSans-34"/>
      </g>
     </g>
    </g>
    <g id="text_6">
     <!-- Lick rate (lick/s) -->
     <g transform="translate(25.127813 146.407187) rotate(-90) scale(0.1 -0.1)">
      <defs>
       <path id="DejaVuSans-4c" d="M 628 4666 
L 1259 4666 
L 1259 531 
L 3531 531 
L 3531 0 
L 628 0 
L 628 4666 
z
" transform="scale(0.015625)"/>
       <path id="DejaVuSans-69" d="M 603 3500 
L 1178 3500 
L 1178 0 
L 603 0 
L 603 3500 
z
M 603 4863 
L 1178 4863 
L 1178 4134 
L 603 4134 
L 603 4863 
z
" transform="scale(0.015625)"/>
       <path id="DejaVuSans-63" d="M 3122 3366 
L 3122 2828 
Q 2878 2963 2633 3030 
Q 2388 3097 2138 3097 
Q 1578 3097 1268 2742 
Q 959 2388 959 1747 
Q 959 1106 1268 751 
Q 1578 397 2138 397 
Q 2388 397 2633 464 
Q 2878 531 3122 666 
L 3122 134 
Q 2881 22 2623 -34 
Q 2366 -91 2075 -91 
Q 1284 -91 818 406 
Q 353 903 353 1747 
Q 353 2603 823 3093 
Q 1294 3584 2113 3584 
Q 2378 3584 2631 3529 
Q 2884 3475 3122 3366 
z
" transform="scale(0.015625)"/>
       <path id="DejaVuSans-6b" d="M 581 4863 
L 1159 4863 
L 1159 1991 
L 2875 3500 
L 3609 3500 
L 1753 1863 
L 3688 0 
L 2938 0 
L 1159 1709 
L 1159 0 
L 581 0 
L 581 4863 
z
" transform="scale(0.015625)"/>
       <path id="DejaVuSans-20" transform="scale(0.015625)"/>
       <path id="DejaVuSans-72" d="M 2631 2963 
Q 2534 3019 2420 3045 
Q 2306 3072 2169 3072 
Q 1681 3072 1420 2755 
Q 1159 2438 1159 1844 
L 1159 0 
L 581 0 
L 581 3500 
L 1159 3500 
L 1159 2956 
Q 1341 3275 1631 3429 
Q 1922 3584 2338 3584 
Q 2397 3584 2469 3576 
Q 2541 3569 2628 3553 
L 2631 2963 
z
" transform="scale(0.015625)"/>
       <path id="DejaVuSans-61" d="M 2194 1759 
Q 1497 1759 1228 1600 
Q 959 1441 959 1056 
Q 959 750 1161 570 
Q 1363 391 1709 391 
Q 2188 391 2477 730 
Q 2766 1069 2766 1631 
L 2766 1759 
L 2194 1759 
z
M 3341 1997 
L 3341 0 
L 2766 0 
L 2766 531 
Q 2569 213 2275 61 
Q 1981 -91 1556 -91 
Q 1019 -91 701 211 
Q 384 513 384 1019 
Q 384 1609 779 1909 
Q 1175 2209 1959 2209 
L 2766 2209 
L 2766 2266 
Q 2766 2663 2505 2880 
Q 2244 3097 1772 3097 
Q 1472 3097 1187 3025 
Q 903 2953 641 2809 
L 641 3341 
Q 956 3463 1253 3523 
Q 1550 3584 1831 3584 
Q 2591 3584 2966 3190 
Q 3341 2797 3341 1997 
z
" transform="scale(0.015625)"/>
       <path id="DejaVuSans-74" d="M 1172 4494 
L 1172 3500 
L 2356 3500 
L 2356 3053 
L 1172 3053 
L 1172 1153 
Q 1172 725 1289 603 
Q 1406 481 1766 481 
L 2356 481 
L 2356 0 
L 1766 0 
Q 1100 0 847 248 
Q 594 497 594 1153 
L 594 3053 
L 172 3053 
L 172 3500 
L 594 3500 
L 594 4494 
L 1172 4494 
z
" transform="scale(0.015625)"/>
       <path id="DejaVuSans-65" d="M 3597 1894 
L 3597 1613 
L 953 1613 
Q 991 1019 1311 708 
Q 1631 397 2203 397 
Q 2534 397 2845 478 
Q 3156 559 3463 722 
L 3463 178 
Q 3153 47 2828 -22 
Q 2503 -91 2169 -91 
Q 1331 -91 842 396 
Q 353 884 353 1716 
Q 353 2575 817 3079 
Q 1281 3584 2069 3584 
Q 2775 3584 3186 3129 
Q 3597 2675 3597 1894 
z
M 3022 2063 
Q 3016 2534 2758 2815 
Q 2500 3097 2075 3097 
Q 1594 3097 1305 2825 
Q 1016 2553 972 2059 
L 3022 2063 
z
" transform="scale(0.015625)"/>
       <path id="DejaVuSans-28" d="M 1984 4856 
Q 1566 4138 1362 3434 
Q 1159 2731 1159 2009 
Q 1159 1288 1364 580 
Q 1569 -128 1984 -844 
L 1484 -844 
Q 1016 -109 783 600 
Q 550 1309 550 2009 
Q 550 2706 781 3412 
Q 1013 4119 1484 4856 
L 1984 4856 
z
" transform="scale(0.015625)"/>
       <path id="DejaVuSans-6c" d="M 603 4863 
L 1178 4863 
L 1178 0 
L 603 0 
L 603 4863 
z
" transform="scale(0.015625)"/>
       <path id="DejaVuSans-2f" d="M 1625 4666 
L 2156 4666 
L 531 -594 
L 0 -594 
L 1625 4666 
z
" transform="scale(0.015625)"/>
       <path id="DejaVuSans-73" d="M 2834 3397 
L 2834 2853 
Q 2591 2978 2328 3040 
Q 2066 3103 1784 3103 
Q 1356 3103 1142 2972 
Q 928 2841 928 2578 
Q 928 2378 1081 2264 
Q 1234 2150 1697 2047 
L 1894 2003 
Q 2506 1872 2764 1633 
Q 3022 1394 3022 966 
Q 3022 478 2636 193 
Q 2250 -91 1575 -91 
Q 1294 -91 989 -36 
Q 684 19 347 128 
L 347 722 
Q 666 556 975 473 
Q 1284 391 1588 391 
Q 1994 391 2212 530 
Q 2431 669 2431 922 
Q 2431 1156 2273 1281 
Q 2116 1406 1581 1522 
L 1381 1569 
Q 847 1681 609 1914 
Q 372 2147 372 2553 
Q 372 3047 722 3315 
Q 1072 3584 1716 3584 
Q 2034 3584 2315 3537 
Q 2597 3491 2834 3397 
z
" transform="scale(0.015625)"/>
       <path id="DejaVuSans-29" d="M 513 4856 
L 1013 4856 
Q 1481 4119 1714 3412 
Q 1947 2706 1947 2009 
Q 1947 1309 1714 600 
Q 1481 -109 1013 -844 
L 513 -844 
Q 928 -128 1133 580 
Q 1338 1288 1338 2009 
Q 1338 2731 1133 3434 
Q 928 4138 513 4856 
z
" transform="scale(0.015625)"/>
      </defs>
      <use xlink:href="#DejaVuSans-4c"/>
      <use xlink:href="#DejaVuSans-69" x="55.712891"/>
      <use xlink:href="#DejaVuSans-63" x="83.496094"/>
      <use xlink:href="#DejaVuSans-6b" x="138.476562"/>
      <use xlink:href="#DejaVuSans-20" x="196.386719"/>
      <use xlink:href="#DejaVuSans-72" x="228.173828"/>
      <use xlink:href="#DejaVuSans-61" x="269.287109"/>
      <use xlink:href="#DejaVuSans-74" x="330.566406"/>
      <use xlink:href="#DejaVuSans-65" x="369.775391"/>
      <use xlink:href="#DejaVuSans-20" x="431.298828"/>
      <use xlink:href="#DejaVuSans-28" x="463.085938"/>
      <use xlink:href="#DejaVuSans-6c" x="502.099609"/>
      <use xlink:href="#DejaVuSans-69" x="529.882812"/>
      <use xlink:href="#DejaVuSans-63" x="557.666016"/>
      <use xlink:href="#DejaVuSans-6b" x="612.646484"/>
      <use xlink:href="#DejaVuSans-2f" x="670.556641"/>
      <use xlink:href="#DejaVuSans-73" x="704.248047"/>
      <use xlink:href="#DejaVuSans-29" x="756.347656"/>
     </g>
    </g>
   </g>
   <g id="line2d_14">
    <path d="M 68.235 158.662275 
L 71.640036 165.031404 
L 75.045072 154.583881 
L 78.450108 172.216169 
L 81.855144 176.548029 
L 88.665216 172.449578 
L 92.070252 174.598786 
L 95.475288 176.577218 
L 98.880324 175.827898 
L 102.28536 174.734993 
L 105.690396 171.311638 
L 109.095432 173.381234 
L 112.500468 171.831898 
L 115.905504 173.588103 
L 119.31054 172.725235 
L 122.715576 160.280164 
L 126.120612 175.75383 
L 129.525647 178.966207 
L 136.335719 177.721767 
L 139.740755 178.790735 
L 143.145791 177.630287 
L 146.550827 178.733296 
L 149.955863 179.149091 
L 153.360899 178.931621 
L 156.765935 177.223083 
L 160.170971 178.068258 
L 170.386079 178.486628 
L 173.791115 178.027743 
L 177.196151 177.406975 
L 184.006223 178.447139 
L 187.411259 178.482201 
L 190.816295 178.697772 
L 194.221331 178.492145 
L 197.626367 178.755336 
L 207.841475 178.851182 
L 211.246511 178.672644 
L 214.651547 176.880585 
L 218.056583 170.937216 
L 221.461619 157.552758 
L 224.866655 159.969853 
L 228.271691 158.38725 
L 231.676727 161.707439 
L 235.081763 163.688431 
L 238.486799 160.549164 
L 241.891835 164.975121 
L 245.296871 164.585177 
L 248.701906 166.150613 
L 252.106942 169.744599 
L 255.511978 174.590395 
L 258.917014 175.579043 
L 262.32205 176.932118 
L 269.132122 177.377209 
L 272.537158 177.153188 
L 275.942194 176.329353 
L 279.34723 172.46443 
L 282.752266 144.418697 
L 286.157302 166.59047 
L 289.562338 175.89158 
L 292.967374 176.605213 
L 296.37241 176.373911 
L 299.777446 174.827641 
L 303.182482 171.505733 
L 306.587518 172.756786 
L 309.992554 171.736517 
L 313.39759 164.535161 
L 316.802626 158.805665 
L 320.207662 157.505431 
L 323.612698 162.223244 
L 327.017734 162.162587 
L 330.42277 161.428633 
L 333.827806 163.990481 
L 337.232842 170.313387 
L 340.637878 170.225539 
L 344.042914 171.743817 
L 347.44795 173.085958 
L 350.852986 174.918785 
L 354.258022 177.427761 
L 357.663058 178.182361 
L 361.068094 178.289255 
L 364.473129 177.623821 
L 367.878165 176.102413 
L 371.283201 174.406129 
L 374.688237 172.888115 
L 378.093273 170.918528 
L 381.498309 154.357517 
L 384.903345 166.129872 
L 388.308381 172.512754 
L 391.713417 173.935519 
L 395.118453 174.323673 
L 398.523489 175.225522 
L 401.928525 174.58669 
L 405.333561 175.399478 
L 408.738597 175.145051 
L 412.143633 169.102159 
L 415.548669 151.90766 
L 418.953705 117.650013 
L 422.358741 87.906655 
L 425.763777 67.093246 
L 429.168813 57.893459 
L 432.573849 74.851988 
L 435.978885 82.990862 
L 439.383921 96.629301 
L 442.788957 109.759018 
L 446.193993 120.924733 
L 449.599029 135.362646 
L 453.004065 151.565829 
L 456.409101 165.135536 
L 459.814137 172.546852 
L 463.219173 175.140224 
L 466.624209 175.592935 
L 470.029245 175.353142 
L 473.434281 174.308483 
L 476.839317 174.5767 
L 480.244353 175.408745 
L 483.649388 174.887976 
L 487.054424 176.088225 
L 490.45946 176.727368 
L 493.864496 178.508884 
L 497.269532 178.001246 
L 504.079604 178.427108 
L 507.48464 178.341765 
L 510.889676 178.418307 
L 514.294712 177.142123 
L 517.699748 170.934065 
L 521.104784 155.110027 
L 524.50982 125.264739 
L 527.914856 81.369713 
L 531.319892 34.130909 
L 534.724928 41.227314 
L 538.129964 101.121979 
L 541.535 153.237427 
L 541.535 153.237427 
" clip-path="url(#pf9b9916d55)" style="fill: none; stroke: #000000; stroke-width: 2; stroke-linecap: square"/>
   </g>
   <g id="line2d_15">
    <path d="M 156.788635 186.4 
L 156.788635 26.88 
" clip-path="url(#pf9b9916d55)" style="fill: none; stroke-dasharray: 3.7,1.6; stroke-dashoffset: 0; stroke: #ff0000"/>
   </g>
   <g id="line2d_16">
    <path d="M 255.62548 186.4 
L 255.62548 26.88 
" clip-path="url(#pf9b9916d55)" style="fill: none; stroke-dasharray: 3.7,1.6; stroke-dashoffset: 0; stroke: #ff0000"/>
   </g>
   <g id="line2d_17">
    <path d="M 354.14452 186.4 
L 354.14452 26.88 
" clip-path="url(#pf9b9916d55)" style="fill: none; stroke-dasharray: 3.7,1.6; stroke-dashoffset: 0; stroke: #ff0000"/>
   </g>
   <g id="line2d_18">
    <path d="M 452.663561 186.4 
L 452.663561 26.88 
" clip-path="url(#pf9b9916d55)" style="fill: none; stroke-dasharray: 3.7,1.6; stroke-dashoffset: 0; stroke: #ff0000"/>
   </g>
   <g id="line2d_19">
    <path d="M 530.525384 186.4 
L 530.525384 26.88 
" clip-path="url(#pf9b9916d55)" style="fill: none; stroke-dasharray: 3.7,1.6; stroke-dashoffset: 0; stroke: #ff0000"/>
   </g>
   <g id="patch_3">
    <path d="M 44.57 186.4 
L 44.57 26.88 
" style="fill: none; stroke: #000000; stroke-width: 0.8; stroke-linejoin: miter; stroke-linecap: square"/>
   </g>
   <g id="patch_4">
    <path d="M 565.2 186.4 
L 565.2 26.88 
" style="fill: none; stroke: #000000; stroke-width: 0.8; stroke-linejoin: miter; stroke-linecap: square"/>
   </g>
   <g id="patch_5">
    <path d="M 44.57 186.4 
L 565.2 186.4 
" style="fill: none; stroke: #000000; stroke-width: 0.8; stroke-linejoin: miter; stroke-linecap: square"/>
   </g>
   <g id="patch_6">
    <path d="M 44.57 26.88 
L 565.2 26.88 
" style="fill: none; stroke: #000000; stroke-width: 0.8; stroke-linejoin: miter; stroke-linecap: square"/>
   </g>
   <g id="text_7">
    <!-- Expected Trials: Average Lick / Pupil / Speed data across position bins (10cm) -->
    <g transform="translate(72.49375 20.88) scale(0.12 -0.12)">
     <defs>
      <path id="DejaVuSans-45" d="M 628 4666 
L 3578 4666 
L 3578 4134 
L 1259 4134 
L 1259 2753 
L 3481 2753 
L 3481 2222 
L 1259 2222 
L 1259 531 
L 3634 531 
L 3634 0 
L 628 0 
L 628 4666 
z
" transform="scale(0.015625)"/>
      <path id="DejaVuSans-78" d="M 3513 3500 
L 2247 1797 
L 3578 0 
L 2900 0 
L 1881 1375 
L 863 0 
L 184 0 
L 1544 1831 
L 300 3500 
L 978 3500 
L 1906 2253 
L 2834 3500 
L 3513 3500 
z
" transform="scale(0.015625)"/>
      <path id="DejaVuSans-70" d="M 1159 525 
L 1159 -1331 
L 581 -1331 
L 581 3500 
L 1159 3500 
L 1159 2969 
Q 1341 3281 1617 3432 
Q 1894 3584 2278 3584 
Q 2916 3584 3314 3078 
Q 3713 2572 3713 1747 
Q 3713 922 3314 415 
Q 2916 -91 2278 -91 
Q 1894 -91 1617 61 
Q 1341 213 1159 525 
z
M 3116 1747 
Q 3116 2381 2855 2742 
Q 2594 3103 2138 3103 
Q 1681 3103 1420 2742 
Q 1159 2381 1159 1747 
Q 1159 1113 1420 752 
Q 1681 391 2138 391 
Q 2594 391 2855 752 
Q 3116 1113 3116 1747 
z
" transform="scale(0.015625)"/>
      <path id="DejaVuSans-64" d="M 2906 2969 
L 2906 4863 
L 3481 4863 
L 3481 0 
L 2906 0 
L 2906 525 
Q 2725 213 2448 61 
Q 2172 -91 1784 -91 
Q 1150 -91 751 415 
Q 353 922 353 1747 
Q 353 2572 751 3078 
Q 1150 3584 1784 3584 
Q 2172 3584 2448 3432 
Q 2725 3281 2906 2969 
z
M 947 1747 
Q 947 1113 1208 752 
Q 1469 391 1925 391 
Q 2381 391 2643 752 
Q 2906 1113 2906 1747 
Q 2906 2381 2643 2742 
Q 2381 3103 1925 3103 
Q 1469 3103 1208 2742 
Q 947 2381 947 1747 
z
" transform="scale(0.015625)"/>
      <path id="DejaVuSans-54" d="M -19 4666 
L 3928 4666 
L 3928 4134 
L 2272 4134 
L 2272 0 
L 1638 0 
L 1638 4134 
L -19 4134 
L -19 4666 
z
" transform="scale(0.015625)"/>
      <path id="DejaVuSans-3a" d="M 750 794 
L 1409 794 
L 1409 0 
L 750 0 
L 750 794 
z
M 750 3309 
L 1409 3309 
L 1409 2516 
L 750 2516 
L 750 3309 
z
" transform="scale(0.015625)"/>
      <path id="DejaVuSans-41" d="M 2188 4044 
L 1331 1722 
L 3047 1722 
L 2188 4044 
z
M 1831 4666 
L 2547 4666 
L 4325 0 
L 3669 0 
L 3244 1197 
L 1141 1197 
L 716 0 
L 50 0 
L 1831 4666 
z
" transform="scale(0.015625)"/>
      <path id="DejaVuSans-76" d="M 191 3500 
L 800 3500 
L 1894 563 
L 2988 3500 
L 3597 3500 
L 2284 0 
L 1503 0 
L 191 3500 
z
" transform="scale(0.015625)"/>
      <path id="DejaVuSans-67" d="M 2906 1791 
Q 2906 2416 2648 2759 
Q 2391 3103 1925 3103 
Q 1463 3103 1205 2759 
Q 947 2416 947 1791 
Q 947 1169 1205 825 
Q 1463 481 1925 481 
Q 2391 481 2648 825 
Q 2906 1169 2906 1791 
z
M 3481 434 
Q 3481 -459 3084 -895 
Q 2688 -1331 1869 -1331 
Q 1566 -1331 1297 -1286 
Q 1028 -1241 775 -1147 
L 775 -588 
Q 1028 -725 1275 -790 
Q 1522 -856 1778 -856 
Q 2344 -856 2625 -561 
Q 2906 -266 2906 331 
L 2906 616 
Q 2728 306 2450 153 
Q 2172 0 1784 0 
Q 1141 0 747 490 
Q 353 981 353 1791 
Q 353 2603 747 3093 
Q 1141 3584 1784 3584 
Q 2172 3584 2450 3431 
Q 2728 3278 2906 2969 
L 2906 3500 
L 3481 3500 
L 3481 434 
z
" transform="scale(0.015625)"/>
      <path id="DejaVuSans-50" d="M 1259 4147 
L 1259 2394 
L 2053 2394 
Q 2494 2394 2734 2622 
Q 2975 2850 2975 3272 
Q 2975 3691 2734 3919 
Q 2494 4147 2053 4147 
L 1259 4147 
z
M 628 4666 
L 2053 4666 
Q 2838 4666 3239 4311 
Q 3641 3956 3641 3272 
Q 3641 2581 3239 2228 
Q 2838 1875 2053 1875 
L 1259 1875 
L 1259 0 
L 628 0 
L 628 4666 
z
" transform="scale(0.015625)"/>
      <path id="DejaVuSans-75" d="M 544 1381 
L 544 3500 
L 1119 3500 
L 1119 1403 
Q 1119 906 1312 657 
Q 1506 409 1894 409 
Q 2359 409 2629 706 
Q 2900 1003 2900 1516 
L 2900 3500 
L 3475 3500 
L 3475 0 
L 2900 0 
L 2900 538 
Q 2691 219 2414 64 
Q 2138 -91 1772 -91 
Q 1169 -91 856 284 
Q 544 659 544 1381 
z
M 1991 3584 
L 1991 3584 
z
" transform="scale(0.015625)"/>
      <path id="DejaVuSans-53" d="M 3425 4513 
L 3425 3897 
Q 3066 4069 2747 4153 
Q 2428 4238 2131 4238 
Q 1616 4238 1336 4038 
Q 1056 3838 1056 3469 
Q 1056 3159 1242 3001 
Q 1428 2844 1947 2747 
L 2328 2669 
Q 3034 2534 3370 2195 
Q 3706 1856 3706 1288 
Q 3706 609 3251 259 
Q 2797 -91 1919 -91 
Q 1588 -91 1214 -16 
Q 841 59 441 206 
L 441 856 
Q 825 641 1194 531 
Q 1563 422 1919 422 
Q 2459 422 2753 634 
Q 3047 847 3047 1241 
Q 3047 1584 2836 1778 
Q 2625 1972 2144 2069 
L 1759 2144 
Q 1053 2284 737 2584 
Q 422 2884 422 3419 
Q 422 4038 858 4394 
Q 1294 4750 2059 4750 
Q 2388 4750 2728 4690 
Q 3069 4631 3425 4513 
z
" transform="scale(0.015625)"/>
      <path id="DejaVuSans-6f" d="M 1959 3097 
Q 1497 3097 1228 2736 
Q 959 2375 959 1747 
Q 959 1119 1226 758 
Q 1494 397 1959 397 
Q 2419 397 2687 759 
Q 2956 1122 2956 1747 
Q 2956 2369 2687 2733 
Q 2419 3097 1959 3097 
z
M 1959 3584 
Q 2709 3584 3137 3096 
Q 3566 2609 3566 1747 
Q 3566 888 3137 398 
Q 2709 -91 1959 -91 
Q 1206 -91 779 398 
Q 353 888 353 1747 
Q 353 2609 779 3096 
Q 1206 3584 1959 3584 
z
" transform="scale(0.015625)"/>
      <path id="DejaVuSans-6e" d="M 3513 2113 
L 3513 0 
L 2938 0 
L 2938 2094 
Q 2938 2591 2744 2837 
Q 2550 3084 2163 3084 
Q 1697 3084 1428 2787 
Q 1159 2491 1159 1978 
L 1159 0 
L 581 0 
L 581 3500 
L 1159 3500 
L 1159 2956 
Q 1366 3272 1645 3428 
Q 1925 3584 2291 3584 
Q 2894 3584 3203 3211 
Q 3513 2838 3513 2113 
z
" transform="scale(0.015625)"/>
      <path id="DejaVuSans-62" d="M 3116 1747 
Q 3116 2381 2855 2742 
Q 2594 3103 2138 3103 
Q 1681 3103 1420 2742 
Q 1159 2381 1159 1747 
Q 1159 1113 1420 752 
Q 1681 391 2138 391 
Q 2594 391 2855 752 
Q 3116 1113 3116 1747 
z
M 1159 2969 
Q 1341 3281 1617 3432 
Q 1894 3584 2278 3584 
Q 2916 3584 3314 3078 
Q 3713 2572 3713 1747 
Q 3713 922 3314 415 
Q 2916 -91 2278 -91 
Q 1894 -91 1617 61 
Q 1341 213 1159 525 
L 1159 0 
L 581 0 
L 581 4863 
L 1159 4863 
L 1159 2969 
z
" transform="scale(0.015625)"/>
      <path id="DejaVuSans-6d" d="M 3328 2828 
Q 3544 3216 3844 3400 
Q 4144 3584 4550 3584 
Q 5097 3584 5394 3201 
Q 5691 2819 5691 2113 
L 5691 0 
L 5113 0 
L 5113 2094 
Q 5113 2597 4934 2840 
Q 4756 3084 4391 3084 
Q 3944 3084 3684 2787 
Q 3425 2491 3425 1978 
L 3425 0 
L 2847 0 
L 2847 2094 
Q 2847 2600 2669 2842 
Q 2491 3084 2119 3084 
Q 1678 3084 1418 2786 
Q 1159 2488 1159 1978 
L 1159 0 
L 581 0 
L 581 3500 
L 1159 3500 
L 1159 2956 
Q 1356 3278 1631 3431 
Q 1906 3584 2284 3584 
Q 2666 3584 2933 3390 
Q 3200 3197 3328 2828 
z
" transform="scale(0.015625)"/>
     </defs>
     <use xlink:href="#DejaVuSans-45"/>
     <use xlink:href="#DejaVuSans-78" x="63.183594"/>
     <use xlink:href="#DejaVuSans-70" x="122.363281"/>
     <use xlink:href="#DejaVuSans-65" x="185.839844"/>
     <use xlink:href="#DejaVuSans-63" x="247.363281"/>
     <use xlink:href="#DejaVuSans-74" x="302.34375"/>
     <use xlink:href="#DejaVuSans-65" x="341.552734"/>
     <use xlink:href="#DejaVuSans-64" x="403.076172"/>
     <use xlink:href="#DejaVuSans-20" x="466.552734"/>
     <use xlink:href="#DejaVuSans-54" x="498.339844"/>
     <use xlink:href="#DejaVuSans-72" x="544.673828"/>
     <use xlink:href="#DejaVuSans-69" x="585.787109"/>
     <use xlink:href="#DejaVuSans-61" x="613.570312"/>
     <use xlink:href="#DejaVuSans-6c" x="674.849609"/>
     <use xlink:href="#DejaVuSans-73" x="702.632812"/>
     <use xlink:href="#DejaVuSans-3a" x="754.732422"/>
     <use xlink:href="#DejaVuSans-20" x="788.423828"/>
     <use xlink:href="#DejaVuSans-41" x="820.210938"/>
     <use xlink:href="#DejaVuSans-76" x="882.744141"/>
     <use xlink:href="#DejaVuSans-65" x="941.923828"/>
     <use xlink:href="#DejaVuSans-72" x="1003.447266"/>
     <use xlink:href="#DejaVuSans-61" x="1044.560547"/>
     <use xlink:href="#DejaVuSans-67" x="1105.839844"/>
     <use xlink:href="#DejaVuSans-65" x="1169.316406"/>
     <use xlink:href="#DejaVuSans-20" x="1230.839844"/>
     <use xlink:href="#DejaVuSans-4c" x="1262.626953"/>
     <use xlink:href="#DejaVuSans-69" x="1318.339844"/>
     <use xlink:href="#DejaVuSans-63" x="1346.123047"/>
     <use xlink:href="#DejaVuSans-6b" x="1401.103516"/>
     <use xlink:href="#DejaVuSans-20" x="1459.013672"/>
     <use xlink:href="#DejaVuSans-2f" x="1490.800781"/>
     <use xlink:href="#DejaVuSans-20" x="1524.492188"/>
     <use xlink:href="#DejaVuSans-50" x="1556.279297"/>
     <use xlink:href="#DejaVuSans-75" x="1614.832031"/>
     <use xlink:href="#DejaVuSans-70" x="1678.210938"/>
     <use xlink:href="#DejaVuSans-69" x="1741.6875"/>
     <use xlink:href="#DejaVuSans-6c" x="1769.470703"/>
     <use xlink:href="#DejaVuSans-20" x="1797.253906"/>
     <use xlink:href="#DejaVuSans-2f" x="1829.041016"/>
     <use xlink:href="#DejaVuSans-20" x="1862.732422"/>
     <use xlink:href="#DejaVuSans-53" x="1894.519531"/>
     <use xlink:href="#DejaVuSans-70" x="1957.996094"/>
     <use xlink:href="#DejaVuSans-65" x="2021.472656"/>
     <use xlink:href="#DejaVuSans-65" x="2082.996094"/>
     <use xlink:href="#DejaVuSans-64" x="2144.519531"/>
     <use xlink:href="#DejaVuSans-20" x="2207.996094"/>
     <use xlink:href="#DejaVuSans-64" x="2239.783203"/>
     <use xlink:href="#DejaVuSans-61" x="2303.259766"/>
     <use xlink:href="#DejaVuSans-74" x="2364.539062"/>
     <use xlink:href="#DejaVuSans-61" x="2403.748047"/>
     <use xlink:href="#DejaVuSans-20" x="2465.027344"/>
     <use xlink:href="#DejaVuSans-61" x="2496.814453"/>
     <use xlink:href="#DejaVuSans-63" x="2558.09375"/>
     <use xlink:href="#DejaVuSans-72" x="2613.074219"/>
     <use xlink:href="#DejaVuSans-6f" x="2651.9375"/>
     <use xlink:href="#DejaVuSans-73" x="2713.119141"/>
     <use xlink:href="#DejaVuSans-73" x="2765.21875"/>
     <use xlink:href="#DejaVuSans-20" x="2817.318359"/>
     <use xlink:href="#DejaVuSans-70" x="2849.105469"/>
     <use xlink:href="#DejaVuSans-6f" x="2912.582031"/>
     <use xlink:href="#DejaVuSans-73" x="2973.763672"/>
     <use xlink:href="#DejaVuSans-69" x="3025.863281"/>
     <use xlink:href="#DejaVuSans-74" x="3053.646484"/>
     <use xlink:href="#DejaVuSans-69" x="3092.855469"/>
     <use xlink:href="#DejaVuSans-6f" x="3120.638672"/>
     <use xlink:href="#DejaVuSans-6e" x="3181.820312"/>
     <use xlink:href="#DejaVuSans-20" x="3245.199219"/>
     <use xlink:href="#DejaVuSans-62" x="3276.986328"/>
     <use xlink:href="#DejaVuSans-69" x="3340.462891"/>
     <use xlink:href="#DejaVuSans-6e" x="3368.246094"/>
     <use xlink:href="#DejaVuSans-73" x="3431.625"/>
     <use xlink:href="#DejaVuSans-20" x="3483.724609"/>
     <use xlink:href="#DejaVuSans-28" x="3515.511719"/>
     <use xlink:href="#DejaVuSans-31" x="3554.525391"/>
     <use xlink:href="#DejaVuSans-30" x="3618.148438"/>
     <use xlink:href="#DejaVuSans-63" x="3681.771484"/>
     <use xlink:href="#DejaVuSans-6d" x="3736.751953"/>
     <use xlink:href="#DejaVuSans-29" x="3834.164062"/>
    </g>
   </g>
  </g>
  <g id="axes_2">
   <g id="patch_7">
    <path d="M 44.57 360.22 
L 565.2 360.22 
L 565.2 200.7 
L 44.57 200.7 
z
" style="fill: #ffffff"/>
   </g>
   <g id="matplotlib.axis_3">
    <g id="xtick_9">
     <g id="line2d_20">
      <g>
       <use xlink:href="#m68b07a1425" x="66.532482" y="360.22" style="stroke: #000000; stroke-width: 0.8"/>
      </g>
     </g>
    </g>
    <g id="xtick_10">
     <g id="line2d_21">
      <g>
       <use xlink:href="#m68b07a1425" x="134.633201" y="360.22" style="stroke: #000000; stroke-width: 0.8"/>
      </g>
     </g>
    </g>
    <g id="xtick_11">
     <g id="line2d_22">
      <g>
       <use xlink:href="#m68b07a1425" x="202.733921" y="360.22" style="stroke: #000000; stroke-width: 0.8"/>
      </g>
     </g>
    </g>
    <g id="xtick_12">
     <g id="line2d_23">
      <g>
       <use xlink:href="#m68b07a1425" x="270.83464" y="360.22" style="stroke: #000000; stroke-width: 0.8"/>
      </g>
     </g>
    </g>
    <g id="xtick_13">
     <g id="line2d_24">
      <g>
       <use xlink:href="#m68b07a1425" x="338.93536" y="360.22" style="stroke: #000000; stroke-width: 0.8"/>
      </g>
     </g>
    </g>
    <g id="xtick_14">
     <g id="line2d_25">
      <g>
       <use xlink:href="#m68b07a1425" x="407.036079" y="360.22" style="stroke: #000000; stroke-width: 0.8"/>
      </g>
     </g>
    </g>
    <g id="xtick_15">
     <g id="line2d_26">
      <g>
       <use xlink:href="#m68b07a1425" x="475.136799" y="360.22" style="stroke: #000000; stroke-width: 0.8"/>
      </g>
     </g>
    </g>
    <g id="xtick_16">
     <g id="line2d_27">
      <g>
       <use xlink:href="#m68b07a1425" x="543.237518" y="360.22" style="stroke: #000000; stroke-width: 0.8"/>
      </g>
     </g>
    </g>
   </g>
   <g id="matplotlib.axis_4">
    <g id="ytick_6">
     <g id="line2d_28">
      <g>
       <use xlink:href="#m202c63bbed" x="44.57" y="342.745781" style="stroke: #000000; stroke-width: 0.8"/>
      </g>
     </g>
     <g id="text_8">
      <!-- 47 -->
      <g transform="translate(24.845 346.545) scale(0.1 -0.1)">
       <defs>
        <path id="DejaVuSans-37" d="M 525 4666 
L 3525 4666 
L 3525 4397 
L 1831 0 
L 1172 0 
L 2766 4134 
L 525 4134 
L 525 4666 
z
" transform="scale(0.015625)"/>
       </defs>
       <use xlink:href="#DejaVuSans-34"/>
       <use xlink:href="#DejaVuSans-37" x="63.623047"/>
      </g>
     </g>
    </g>
    <g id="ytick_7">
     <g id="line2d_29">
      <g>
       <use xlink:href="#m202c63bbed" x="44.57" y="318.54832" style="stroke: #000000; stroke-width: 0.8"/>
      </g>
     </g>
     <g id="text_9">
      <!-- 48 -->
      <g transform="translate(24.845 322.347539) scale(0.1 -0.1)">
       <defs>
        <path id="DejaVuSans-38" d="M 2034 2216 
Q 1584 2216 1326 1975 
Q 1069 1734 1069 1313 
Q 1069 891 1326 650 
Q 1584 409 2034 409 
Q 2484 409 2743 651 
Q 3003 894 3003 1313 
Q 3003 1734 2745 1975 
Q 2488 2216 2034 2216 
z
M 1403 2484 
Q 997 2584 770 2862 
Q 544 3141 544 3541 
Q 544 4100 942 4425 
Q 1341 4750 2034 4750 
Q 2731 4750 3128 4425 
Q 3525 4100 3525 3541 
Q 3525 3141 3298 2862 
Q 3072 2584 2669 2484 
Q 3125 2378 3379 2068 
Q 3634 1759 3634 1313 
Q 3634 634 3220 271 
Q 2806 -91 2034 -91 
Q 1263 -91 848 271 
Q 434 634 434 1313 
Q 434 1759 690 2068 
Q 947 2378 1403 2484 
z
M 1172 3481 
Q 1172 3119 1398 2916 
Q 1625 2713 2034 2713 
Q 2441 2713 2670 2916 
Q 2900 3119 2900 3481 
Q 2900 3844 2670 4047 
Q 2441 4250 2034 4250 
Q 1625 4250 1398 4047 
Q 1172 3844 1172 3481 
z
" transform="scale(0.015625)"/>
       </defs>
       <use xlink:href="#DejaVuSans-34"/>
       <use xlink:href="#DejaVuSans-38" x="63.623047"/>
      </g>
     </g>
    </g>
    <g id="ytick_8">
     <g id="line2d_30">
      <g>
       <use xlink:href="#m202c63bbed" x="44.57" y="294.350859" style="stroke: #000000; stroke-width: 0.8"/>
      </g>
     </g>
     <g id="text_10">
      <!-- 49 -->
      <g transform="translate(24.845 298.150078) scale(0.1 -0.1)">
       <defs>
        <path id="DejaVuSans-39" d="M 703 97 
L 703 672 
Q 941 559 1184 500 
Q 1428 441 1663 441 
Q 2288 441 2617 861 
Q 2947 1281 2994 2138 
Q 2813 1869 2534 1725 
Q 2256 1581 1919 1581 
Q 1219 1581 811 2004 
Q 403 2428 403 3163 
Q 403 3881 828 4315 
Q 1253 4750 1959 4750 
Q 2769 4750 3195 4129 
Q 3622 3509 3622 2328 
Q 3622 1225 3098 567 
Q 2575 -91 1691 -91 
Q 1453 -91 1209 -44 
Q 966 3 703 97 
z
M 1959 2075 
Q 2384 2075 2632 2365 
Q 2881 2656 2881 3163 
Q 2881 3666 2632 3958 
Q 2384 4250 1959 4250 
Q 1534 4250 1286 3958 
Q 1038 3666 1038 3163 
Q 1038 2656 1286 2365 
Q 1534 2075 1959 2075 
z
" transform="scale(0.015625)"/>
       </defs>
       <use xlink:href="#DejaVuSans-34"/>
       <use xlink:href="#DejaVuSans-39" x="63.623047"/>
      </g>
     </g>
    </g>
    <g id="ytick_9">
     <g id="line2d_31">
      <g>
       <use xlink:href="#m202c63bbed" x="44.57" y="270.153398" style="stroke: #000000; stroke-width: 0.8"/>
      </g>
     </g>
     <g id="text_11">
      <!-- 50 -->
      <g transform="translate(24.845 273.952617) scale(0.1 -0.1)">
       <defs>
        <path id="DejaVuSans-35" d="M 691 4666 
L 3169 4666 
L 3169 4134 
L 1269 4134 
L 1269 2991 
Q 1406 3038 1543 3061 
Q 1681 3084 1819 3084 
Q 2600 3084 3056 2656 
Q 3513 2228 3513 1497 
Q 3513 744 3044 326 
Q 2575 -91 1722 -91 
Q 1428 -91 1123 -41 
Q 819 9 494 109 
L 494 744 
Q 775 591 1075 516 
Q 1375 441 1709 441 
Q 2250 441 2565 725 
Q 2881 1009 2881 1497 
Q 2881 1984 2565 2268 
Q 2250 2553 1709 2553 
Q 1456 2553 1204 2497 
Q 953 2441 691 2322 
L 691 4666 
z
" transform="scale(0.015625)"/>
       </defs>
       <use xlink:href="#DejaVuSans-35"/>
       <use xlink:href="#DejaVuSans-30" x="63.623047"/>
      </g>
     </g>
    </g>
    <g id="ytick_10">
     <g id="line2d_32">
      <g>
       <use xlink:href="#m202c63bbed" x="44.57" y="245.955937" style="stroke: #000000; stroke-width: 0.8"/>
      </g>
     </g>
     <g id="text_12">
      <!-- 51 -->
      <g transform="translate(24.845 249.755156) scale(0.1 -0.1)">
       <use xlink:href="#DejaVuSans-35"/>
       <use xlink:href="#DejaVuSans-31" x="63.623047"/>
      </g>
     </g>
    </g>
    <g id="ytick_11">
     <g id="line2d_33">
      <g>
       <use xlink:href="#m202c63bbed" x="44.57" y="221.758476" style="stroke: #000000; stroke-width: 0.8"/>
      </g>
     </g>
     <g id="text_13">
      <!-- 52 -->
      <g transform="translate(24.845 225.557695) scale(0.1 -0.1)">
       <use xlink:href="#DejaVuSans-35"/>
       <use xlink:href="#DejaVuSans-32" x="63.623047"/>
      </g>
     </g>
    </g>
    <g id="text_14">
     <!-- Pupil (relative) -->
     <g transform="translate(18.765313 316.856875) rotate(-90) scale(0.1 -0.1)">
      <use xlink:href="#DejaVuSans-50"/>
      <use xlink:href="#DejaVuSans-75" x="58.552734"/>
      <use xlink:href="#DejaVuSans-70" x="121.931641"/>
      <use xlink:href="#DejaVuSans-69" x="185.408203"/>
      <use xlink:href="#DejaVuSans-6c" x="213.191406"/>
      <use xlink:href="#DejaVuSans-20" x="240.974609"/>
      <use xlink:href="#DejaVuSans-28" x="272.761719"/>
      <use xlink:href="#DejaVuSans-72" x="311.775391"/>
      <use xlink:href="#DejaVuSans-65" x="350.638672"/>
      <use xlink:href="#DejaVuSans-6c" x="412.162109"/>
      <use xlink:href="#DejaVuSans-61" x="439.945312"/>
      <use xlink:href="#DejaVuSans-74" x="501.224609"/>
      <use xlink:href="#DejaVuSans-69" x="540.433594"/>
      <use xlink:href="#DejaVuSans-76" x="568.216797"/>
      <use xlink:href="#DejaVuSans-65" x="627.396484"/>
      <use xlink:href="#DejaVuSans-29" x="688.919922"/>
     </g>
    </g>
   </g>
   <g id="line2d_34">
    <path d="M 68.235 212.367881 
L 71.640036 213.466519 
L 75.045072 226.494338 
L 78.450108 207.950909 
L 81.855144 210.279058 
L 85.26018 233.980215 
L 92.070252 260.838575 
L 95.475288 276.854474 
L 98.880324 291.049715 
L 102.28536 302.309066 
L 105.690396 311.434246 
L 109.095432 320.918415 
L 112.500468 320.068204 
L 115.905504 326.999039 
L 119.31054 318.61452 
L 122.715576 310.659475 
L 126.120612 310.734039 
L 129.525647 311.749534 
L 132.930683 309.431427 
L 136.335719 310.227849 
L 139.740755 309.245463 
L 143.145791 307.288973 
L 146.550827 306.902129 
L 149.955863 309.27368 
L 153.360899 314.417784 
L 160.170971 309.522883 
L 163.576007 319.220539 
L 166.981043 338.407621 
L 170.386079 352.060495 
L 173.791115 352.969091 
L 177.196151 348.615101 
L 180.601187 341.41724 
L 184.006223 332.404459 
L 187.411259 326.197205 
L 190.816295 324.101273 
L 194.221331 322.973799 
L 197.626367 320.651575 
L 201.031403 319.005651 
L 204.436439 315.649313 
L 207.841475 310.988766 
L 211.246511 310.663377 
L 214.651547 313.241037 
L 218.056583 314.620095 
L 221.461619 319.528853 
L 224.866655 322.523651 
L 228.271691 326.436225 
L 231.676727 318.998718 
L 235.081763 314.453626 
L 238.486799 310.884757 
L 241.891835 304.461388 
L 245.296871 303.844033 
L 248.701906 301.276631 
L 252.106942 300.439029 
L 255.511978 301.05868 
L 258.917014 306.194122 
L 262.32205 312.472504 
L 265.727086 323.571405 
L 269.132122 331.440348 
L 272.537158 332.182026 
L 275.942194 327.858192 
L 279.34723 321.96746 
L 282.752266 332.393573 
L 286.157302 311.213404 
L 289.562338 308.077995 
L 292.967374 306.014438 
L 296.37241 305.566408 
L 299.777446 300.781596 
L 303.182482 303.537215 
L 306.587518 304.46848 
L 309.992554 311.242273 
L 313.39759 315.755963 
L 316.802626 322.029255 
L 320.207662 320.558752 
L 323.612698 319.6589 
L 327.017734 316.6683 
L 330.42277 313.992677 
L 333.827806 306.234386 
L 337.232842 317.228783 
L 340.637878 313.47121 
L 344.042914 311.278224 
L 347.44795 311.38646 
L 350.852986 309.839681 
L 354.258022 304.159724 
L 357.663058 304.391603 
L 361.068094 315.976892 
L 364.473129 331.345689 
L 367.878165 337.951003 
L 371.283201 340.874482 
L 374.688237 337.223711 
L 378.093273 331.187126 
L 381.498309 323.800272 
L 384.903345 314.159249 
L 388.308381 310.232825 
L 391.713417 308.737088 
L 395.118453 302.140657 
L 398.523489 301.299937 
L 401.928525 292.662386 
L 405.333561 295.837066 
L 408.738597 304.943337 
L 412.143633 309.264455 
L 415.548669 309.598261 
L 418.953705 314.69297 
L 422.358741 309.179447 
L 425.763777 303.453032 
L 429.168813 294.917163 
L 432.573849 292.252058 
L 435.978885 286.180566 
L 439.383921 276.224086 
L 442.788957 277.80292 
L 446.193993 278.853874 
L 449.599029 276.431247 
L 456.409101 279.763586 
L 459.814137 290.729538 
L 463.219173 309.823036 
L 466.624209 321.089716 
L 470.029245 322.554481 
L 473.434281 310.386104 
L 476.839317 307.779226 
L 480.244353 296.989089 
L 483.649388 283.30091 
L 487.054424 292.942049 
L 490.45946 286.682758 
L 493.864496 289.725256 
L 497.269532 288.879047 
L 500.674568 287.463385 
L 504.079604 290.490887 
L 507.48464 291.22706 
L 510.889676 291.716681 
L 514.294712 286.201871 
L 521.104784 279.513832 
L 524.50982 280.483798 
L 527.914856 278.772115 
L 531.319892 276.799682 
L 534.724928 276.179182 
L 538.129964 264.139116 
L 541.535 236.589739 
L 541.535 236.589739 
" clip-path="url(#paac9997eb0)" style="fill: none; stroke: #0000ff; stroke-width: 2; stroke-linecap: square"/>
   </g>
   <g id="line2d_35">
    <path d="M 156.788635 360.22 
L 156.788635 200.7 
" clip-path="url(#paac9997eb0)" style="fill: none; stroke-dasharray: 3.7,1.6; stroke-dashoffset: 0; stroke: #ff0000"/>
   </g>
   <g id="line2d_36">
    <path d="M 255.62548 360.22 
L 255.62548 200.7 
" clip-path="url(#paac9997eb0)" style="fill: none; stroke-dasharray: 3.7,1.6; stroke-dashoffset: 0; stroke: #ff0000"/>
   </g>
   <g id="line2d_37">
    <path d="M 354.14452 360.22 
L 354.14452 200.7 
" clip-path="url(#paac9997eb0)" style="fill: none; stroke-dasharray: 3.7,1.6; stroke-dashoffset: 0; stroke: #ff0000"/>
   </g>
   <g id="line2d_38">
    <path d="M 452.663561 360.22 
L 452.663561 200.7 
" clip-path="url(#paac9997eb0)" style="fill: none; stroke-dasharray: 3.7,1.6; stroke-dashoffset: 0; stroke: #ff0000"/>
   </g>
   <g id="line2d_39">
    <path d="M 530.525384 360.22 
L 530.525384 200.7 
" clip-path="url(#paac9997eb0)" style="fill: none; stroke-dasharray: 3.7,1.6; stroke-dashoffset: 0; stroke: #ff0000"/>
   </g>
   <g id="patch_8">
    <path d="M 44.57 360.22 
L 44.57 200.7 
" style="fill: none; stroke: #000000; stroke-width: 0.8; stroke-linejoin: miter; stroke-linecap: square"/>
   </g>
   <g id="patch_9">
    <path d="M 565.2 360.22 
L 565.2 200.7 
" style="fill: none; stroke: #000000; stroke-width: 0.8; stroke-linejoin: miter; stroke-linecap: square"/>
   </g>
   <g id="patch_10">
    <path d="M 44.57 360.22 
L 565.2 360.22 
" style="fill: none; stroke: #000000; stroke-width: 0.8; stroke-linejoin: miter; stroke-linecap: square"/>
   </g>
   <g id="patch_11">
    <path d="M 44.57 200.7 
L 565.2 200.7 
" style="fill: none; stroke: #000000; stroke-width: 0.8; stroke-linejoin: miter; stroke-linecap: square"/>
   </g>
  </g>
  <g id="axes_3">
   <g id="patch_12">
    <path d="M 44.57 534.04 
L 565.2 534.04 
L 565.2 374.52 
L 44.57 374.52 
z
" style="fill: #ffffff"/>
   </g>
   <g id="matplotlib.axis_5">
    <g id="xtick_17">
     <g id="line2d_40">
      <g>
       <use xlink:href="#m68b07a1425" x="66.532482" y="534.04" style="stroke: #000000; stroke-width: 0.8"/>
      </g>
     </g>
     <g id="text_15">
      <!-- 0 -->
      <g transform="translate(63.351232 548.638438) scale(0.1 -0.1)">
       <use xlink:href="#DejaVuSans-30"/>
      </g>
     </g>
    </g>
    <g id="xtick_18">
     <g id="line2d_41">
      <g>
       <use xlink:href="#m68b07a1425" x="134.633201" y="534.04" style="stroke: #000000; stroke-width: 0.8"/>
      </g>
     </g>
     <g id="text_16">
      <!-- 200 -->
      <g transform="translate(125.089451 548.638438) scale(0.1 -0.1)">
       <use xlink:href="#DejaVuSans-32"/>
       <use xlink:href="#DejaVuSans-30" x="63.623047"/>
       <use xlink:href="#DejaVuSans-30" x="127.246094"/>
      </g>
     </g>
    </g>
    <g id="xtick_19">
     <g id="line2d_42">
      <g>
       <use xlink:href="#m68b07a1425" x="202.733921" y="534.04" style="stroke: #000000; stroke-width: 0.8"/>
      </g>
     </g>
     <g id="text_17">
      <!-- 400 -->
      <g transform="translate(193.190171 548.638438) scale(0.1 -0.1)">
       <use xlink:href="#DejaVuSans-34"/>
       <use xlink:href="#DejaVuSans-30" x="63.623047"/>
       <use xlink:href="#DejaVuSans-30" x="127.246094"/>
      </g>
     </g>
    </g>
    <g id="xtick_20">
     <g id="line2d_43">
      <g>
       <use xlink:href="#m68b07a1425" x="270.83464" y="534.04" style="stroke: #000000; stroke-width: 0.8"/>
      </g>
     </g>
     <g id="text_18">
      <!-- 600 -->
      <g transform="translate(261.29089 548.638438) scale(0.1 -0.1)">
       <defs>
        <path id="DejaVuSans-36" d="M 2113 2584 
Q 1688 2584 1439 2293 
Q 1191 2003 1191 1497 
Q 1191 994 1439 701 
Q 1688 409 2113 409 
Q 2538 409 2786 701 
Q 3034 994 3034 1497 
Q 3034 2003 2786 2293 
Q 2538 2584 2113 2584 
z
M 3366 4563 
L 3366 3988 
Q 3128 4100 2886 4159 
Q 2644 4219 2406 4219 
Q 1781 4219 1451 3797 
Q 1122 3375 1075 2522 
Q 1259 2794 1537 2939 
Q 1816 3084 2150 3084 
Q 2853 3084 3261 2657 
Q 3669 2231 3669 1497 
Q 3669 778 3244 343 
Q 2819 -91 2113 -91 
Q 1303 -91 875 529 
Q 447 1150 447 2328 
Q 447 3434 972 4092 
Q 1497 4750 2381 4750 
Q 2619 4750 2861 4703 
Q 3103 4656 3366 4563 
z
" transform="scale(0.015625)"/>
       </defs>
       <use xlink:href="#DejaVuSans-36"/>
       <use xlink:href="#DejaVuSans-30" x="63.623047"/>
       <use xlink:href="#DejaVuSans-30" x="127.246094"/>
      </g>
     </g>
    </g>
    <g id="xtick_21">
     <g id="line2d_44">
      <g>
       <use xlink:href="#m68b07a1425" x="338.93536" y="534.04" style="stroke: #000000; stroke-width: 0.8"/>
      </g>
     </g>
     <g id="text_19">
      <!-- 800 -->
      <g transform="translate(329.39161 548.638438) scale(0.1 -0.1)">
       <use xlink:href="#DejaVuSans-38"/>
       <use xlink:href="#DejaVuSans-30" x="63.623047"/>
       <use xlink:href="#DejaVuSans-30" x="127.246094"/>
      </g>
     </g>
    </g>
    <g id="xtick_22">
     <g id="line2d_45">
      <g>
       <use xlink:href="#m68b07a1425" x="407.036079" y="534.04" style="stroke: #000000; stroke-width: 0.8"/>
      </g>
     </g>
     <g id="text_20">
      <!-- 1000 -->
      <g transform="translate(394.311079 548.638438) scale(0.1 -0.1)">
       <use xlink:href="#DejaVuSans-31"/>
       <use xlink:href="#DejaVuSans-30" x="63.623047"/>
       <use xlink:href="#DejaVuSans-30" x="127.246094"/>
       <use xlink:href="#DejaVuSans-30" x="190.869141"/>
      </g>
     </g>
    </g>
    <g id="xtick_23">
     <g id="line2d_46">
      <g>
       <use xlink:href="#m68b07a1425" x="475.136799" y="534.04" style="stroke: #000000; stroke-width: 0.8"/>
      </g>
     </g>
     <g id="text_21">
      <!-- 1200 -->
      <g transform="translate(462.411799 548.638438) scale(0.1 -0.1)">
       <use xlink:href="#DejaVuSans-31"/>
       <use xlink:href="#DejaVuSans-32" x="63.623047"/>
       <use xlink:href="#DejaVuSans-30" x="127.246094"/>
       <use xlink:href="#DejaVuSans-30" x="190.869141"/>
      </g>
     </g>
    </g>
    <g id="xtick_24">
     <g id="line2d_47">
      <g>
       <use xlink:href="#m68b07a1425" x="543.237518" y="534.04" style="stroke: #000000; stroke-width: 0.8"/>
      </g>
     </g>
     <g id="text_22">
      <!-- 1400 -->
      <g transform="translate(530.512518 548.638438) scale(0.1 -0.1)">
       <use xlink:href="#DejaVuSans-31"/>
       <use xlink:href="#DejaVuSans-34" x="63.623047"/>
       <use xlink:href="#DejaVuSans-30" x="127.246094"/>
       <use xlink:href="#DejaVuSans-30" x="190.869141"/>
      </g>
     </g>
    </g>
    <g id="text_23">
     <!-- Position (cm) -->
     <g transform="translate(272.310781 562.316563) scale(0.1 -0.1)">
      <use xlink:href="#DejaVuSans-50"/>
      <use xlink:href="#DejaVuSans-6f" x="56.677734"/>
      <use xlink:href="#DejaVuSans-73" x="117.859375"/>
      <use xlink:href="#DejaVuSans-69" x="169.958984"/>
      <use xlink:href="#DejaVuSans-74" x="197.742188"/>
      <use xlink:href="#DejaVuSans-69" x="236.951172"/>
      <use xlink:href="#DejaVuSans-6f" x="264.734375"/>
      <use xlink:href="#DejaVuSans-6e" x="325.916016"/>
      <use xlink:href="#DejaVuSans-20" x="389.294922"/>
      <use xlink:href="#DejaVuSans-28" x="421.082031"/>
      <use xlink:href="#DejaVuSans-63" x="460.095703"/>
      <use xlink:href="#DejaVuSans-6d" x="515.076172"/>
      <use xlink:href="#DejaVuSans-29" x="612.488281"/>
     </g>
    </g>
   </g>
   <g id="matplotlib.axis_6">
    <g id="ytick_12">
     <g id="line2d_48">
      <g>
       <use xlink:href="#m202c63bbed" x="44.57" y="529.820632" style="stroke: #000000; stroke-width: 0.8"/>
      </g>
     </g>
     <g id="text_24">
      <!-- 0 -->
      <g transform="translate(31.2075 533.619851) scale(0.1 -0.1)">
       <use xlink:href="#DejaVuSans-30"/>
      </g>
     </g>
    </g>
    <g id="ytick_13">
     <g id="line2d_49">
      <g>
       <use xlink:href="#m202c63bbed" x="44.57" y="503.432892" style="stroke: #000000; stroke-width: 0.8"/>
      </g>
     </g>
     <g id="text_25">
      <!-- 5 -->
      <g transform="translate(31.2075 507.232111) scale(0.1 -0.1)">
       <use xlink:href="#DejaVuSans-35"/>
      </g>
     </g>
    </g>
    <g id="ytick_14">
     <g id="line2d_50">
      <g>
       <use xlink:href="#m202c63bbed" x="44.57" y="477.045152" style="stroke: #000000; stroke-width: 0.8"/>
      </g>
     </g>
     <g id="text_26">
      <!-- 10 -->
      <g transform="translate(24.845 480.844371) scale(0.1 -0.1)">
       <use xlink:href="#DejaVuSans-31"/>
       <use xlink:href="#DejaVuSans-30" x="63.623047"/>
      </g>
     </g>
    </g>
    <g id="ytick_15">
     <g id="line2d_51">
      <g>
       <use xlink:href="#m202c63bbed" x="44.57" y="450.657412" style="stroke: #000000; stroke-width: 0.8"/>
      </g>
     </g>
     <g id="text_27">
      <!-- 15 -->
      <g transform="translate(24.845 454.456631) scale(0.1 -0.1)">
       <use xlink:href="#DejaVuSans-31"/>
       <use xlink:href="#DejaVuSans-35" x="63.623047"/>
      </g>
     </g>
    </g>
    <g id="ytick_16">
     <g id="line2d_52">
      <g>
       <use xlink:href="#m202c63bbed" x="44.57" y="424.269672" style="stroke: #000000; stroke-width: 0.8"/>
      </g>
     </g>
     <g id="text_28">
      <!-- 20 -->
      <g transform="translate(24.845 428.068891) scale(0.1 -0.1)">
       <use xlink:href="#DejaVuSans-32"/>
       <use xlink:href="#DejaVuSans-30" x="63.623047"/>
      </g>
     </g>
    </g>
    <g id="ytick_17">
     <g id="line2d_53">
      <g>
       <use xlink:href="#m202c63bbed" x="44.57" y="397.881933" style="stroke: #000000; stroke-width: 0.8"/>
      </g>
     </g>
     <g id="text_29">
      <!-- 25 -->
      <g transform="translate(24.845 401.681151) scale(0.1 -0.1)">
       <use xlink:href="#DejaVuSans-32"/>
       <use xlink:href="#DejaVuSans-35" x="63.623047"/>
      </g>
     </g>
    </g>
    <g id="text_30">
     <!-- Speed-baseline (cm/s) -->
     <g transform="translate(18.765313 510.101875) rotate(-90) scale(0.1 -0.1)">
      <defs>
       <path id="DejaVuSans-2d" d="M 313 2009 
L 1997 2009 
L 1997 1497 
L 313 1497 
L 313 2009 
z
" transform="scale(0.015625)"/>
      </defs>
      <use xlink:href="#DejaVuSans-53"/>
      <use xlink:href="#DejaVuSans-70" x="63.476562"/>
      <use xlink:href="#DejaVuSans-65" x="126.953125"/>
      <use xlink:href="#DejaVuSans-65" x="188.476562"/>
      <use xlink:href="#DejaVuSans-64" x="250"/>
      <use xlink:href="#DejaVuSans-2d" x="313.476562"/>
      <use xlink:href="#DejaVuSans-62" x="349.560547"/>
      <use xlink:href="#DejaVuSans-61" x="413.037109"/>
      <use xlink:href="#DejaVuSans-73" x="474.316406"/>
      <use xlink:href="#DejaVuSans-65" x="526.416016"/>
      <use xlink:href="#DejaVuSans-6c" x="587.939453"/>
      <use xlink:href="#DejaVuSans-69" x="615.722656"/>
      <use xlink:href="#DejaVuSans-6e" x="643.505859"/>
      <use xlink:href="#DejaVuSans-65" x="706.884766"/>
      <use xlink:href="#DejaVuSans-20" x="768.408203"/>
      <use xlink:href="#DejaVuSans-28" x="800.195312"/>
      <use xlink:href="#DejaVuSans-63" x="839.208984"/>
      <use xlink:href="#DejaVuSans-6d" x="894.189453"/>
      <use xlink:href="#DejaVuSans-2f" x="991.601562"/>
      <use xlink:href="#DejaVuSans-73" x="1025.292969"/>
      <use xlink:href="#DejaVuSans-29" x="1077.392578"/>
     </g>
    </g>
   </g>
   <g id="line2d_54">
    <path d="M 68.235 520.94547 
L 71.640036 508.950015 
L 75.045072 500.671439 
L 78.450108 476.973547 
L 81.855144 460.358683 
L 85.26018 460.869625 
L 88.665216 462.615598 
L 92.070252 458.408614 
L 95.475288 445.873305 
L 98.880324 416.018671 
L 102.28536 406.103403 
L 105.690396 447.531596 
L 109.095432 440.734605 
L 112.500468 439.148061 
L 115.905504 429.491492 
L 119.31054 431.678642 
L 122.715576 451.360268 
L 126.120612 441.5806 
L 129.525647 439.224353 
L 132.930683 445.964373 
L 136.335719 447.54472 
L 139.740755 453.42205 
L 143.145791 456.018649 
L 146.550827 458.328635 
L 149.955863 455.568235 
L 153.360899 453.540382 
L 156.765935 452.12212 
L 160.170971 449.808456 
L 163.576007 454.64629 
L 166.981043 454.312377 
L 170.386079 445.798015 
L 173.791115 436.807833 
L 177.196151 431.919754 
L 180.601187 430.922836 
L 187.411259 439.821387 
L 190.816295 440.680141 
L 194.221331 440.13508 
L 197.626367 441.415463 
L 201.031403 446.9509 
L 204.436439 453.611605 
L 207.841475 455.796095 
L 211.246511 454.848674 
L 214.651547 455.350229 
L 218.056583 458.045867 
L 221.461619 455.076711 
L 224.866655 442.480787 
L 228.271691 441.292764 
L 231.676727 430.726194 
L 235.081763 427.482391 
L 238.486799 430.408671 
L 241.891835 430.91314 
L 245.296871 435.296241 
L 248.701906 438.630455 
L 252.106942 442.589628 
L 255.511978 444.930473 
L 258.917014 451.64994 
L 262.32205 460.851967 
L 265.727086 464.752778 
L 269.132122 460.193889 
L 272.537158 448.900462 
L 275.942194 439.396997 
L 279.34723 441.850794 
L 282.752266 461.07683 
L 286.157302 452.633047 
L 289.562338 448.989748 
L 292.967374 453.677972 
L 296.37241 457.48251 
L 299.777446 459.827606 
L 303.182482 468.45253 
L 306.587518 470.862174 
L 309.992554 474.969097 
L 313.39759 475.999441 
L 316.802626 466.61649 
L 320.207662 449.536184 
L 323.612698 436.280723 
L 327.017734 428.802284 
L 330.42277 413.89674 
L 333.827806 381.770909 
L 337.232842 418.405738 
L 340.637878 428.577992 
L 344.042914 430.937265 
L 347.44795 436.373189 
L 350.852986 443.601666 
L 354.258022 446.371922 
L 357.663058 458.121548 
L 361.068094 470.595519 
L 364.473129 472.85204 
L 367.878165 466.276519 
L 371.283201 454.705363 
L 374.688237 445.099031 
L 378.093273 445.123578 
L 381.498309 466.821728 
L 384.903345 457.901427 
L 388.308381 452.897841 
L 391.713417 454.755767 
L 395.118453 464.096173 
L 398.523489 466.669993 
L 401.928525 445.030435 
L 405.333561 455.832928 
L 408.738597 479.240993 
L 412.143633 488.743619 
L 415.548669 492.814021 
L 418.953705 498.067703 
L 422.358741 497.861551 
L 425.763777 492.979514 
L 429.168813 489.292165 
L 432.573849 480.802944 
L 435.978885 473.865084 
L 439.383921 473.265153 
L 442.788957 464.585142 
L 446.193993 463.376125 
L 449.599029 460.851471 
L 453.004065 457.600052 
L 456.409101 458.26362 
L 459.814137 455.528577 
L 463.219173 472.533254 
L 466.624209 469.097541 
L 470.029245 456.024206 
L 473.434281 435.70959 
L 476.839317 443.492886 
L 480.244353 445.546223 
L 483.649388 435.193277 
L 487.054424 449.42389 
L 490.45946 443.330647 
L 493.864496 457.149361 
L 497.269532 468.07177 
L 500.674568 476.862979 
L 504.079604 479.037803 
L 507.48464 479.967908 
L 510.889676 484.013611 
L 514.294712 490.336504 
L 517.699748 493.306571 
L 521.104784 497.145161 
L 524.50982 500.71849 
L 527.914856 503.247735 
L 531.319892 519.320085 
L 534.724928 526.789091 
L 538.129964 520.693014 
L 541.535 504.109969 
L 541.535 504.109969 
" clip-path="url(#pac8675232b)" style="fill: none; stroke: #008000; stroke-width: 2; stroke-linecap: square"/>
   </g>
   <g id="line2d_55">
    <path d="M 156.788635 534.04 
L 156.788635 374.52 
" clip-path="url(#pac8675232b)" style="fill: none; stroke-dasharray: 3.7,1.6; stroke-dashoffset: 0; stroke: #ff0000"/>
   </g>
   <g id="line2d_56">
    <path d="M 255.62548 534.04 
L 255.62548 374.52 
" clip-path="url(#pac8675232b)" style="fill: none; stroke-dasharray: 3.7,1.6; stroke-dashoffset: 0; stroke: #ff0000"/>
   </g>
   <g id="line2d_57">
    <path d="M 354.14452 534.04 
L 354.14452 374.52 
" clip-path="url(#pac8675232b)" style="fill: none; stroke-dasharray: 3.7,1.6; stroke-dashoffset: 0; stroke: #ff0000"/>
   </g>
   <g id="line2d_58">
    <path d="M 452.663561 534.04 
L 452.663561 374.52 
" clip-path="url(#pac8675232b)" style="fill: none; stroke-dasharray: 3.7,1.6; stroke-dashoffset: 0; stroke: #ff0000"/>
   </g>
   <g id="line2d_59">
    <path d="M 530.525384 534.04 
L 530.525384 374.52 
" clip-path="url(#pac8675232b)" style="fill: none; stroke-dasharray: 3.7,1.6; stroke-dashoffset: 0; stroke: #ff0000"/>
   </g>
   <g id="patch_13">
    <path d="M 44.57 534.04 
L 44.57 374.52 
" style="fill: none; stroke: #000000; stroke-width: 0.8; stroke-linejoin: miter; stroke-linecap: square"/>
   </g>
   <g id="patch_14">
    <path d="M 565.2 534.04 
L 565.2 374.52 
" style="fill: none; stroke: #000000; stroke-width: 0.8; stroke-linejoin: miter; stroke-linecap: square"/>
   </g>
   <g id="patch_15">
    <path d="M 44.57 534.04 
L 565.2 534.04 
" style="fill: none; stroke: #000000; stroke-width: 0.8; stroke-linejoin: miter; stroke-linecap: square"/>
   </g>
   <g id="patch_16">
    <path d="M 44.57 374.52 
L 565.2 374.52 
" style="fill: none; stroke: #000000; stroke-width: 0.8; stroke-linejoin: miter; stroke-linecap: square"/>
   </g>
  </g>
 </g>
 <defs>
  <clipPath id="pf9b9916d55">
   <rect x="44.57" y="26.88" width="520.63" height="159.52"/>
  </clipPath>
  <clipPath id="paac9997eb0">
   <rect x="44.57" y="200.7" width="520.63" height="159.52"/>
  </clipPath>
  <clipPath id="pac8675232b">
   <rect x="44.57" y="374.52" width="520.63" height="159.52"/>
  </clipPath>
 </defs>
</svg>
