<?xml version="1.0" encoding="utf-8" standalone="no"?>
<!DOCTYPE svg PUBLIC "-//W3C//DTD SVG 1.1//EN"
  "http://www.w3.org/Graphics/SVG/1.1/DTD/svg11.dtd">
<svg xmlns:xlink="http://www.w3.org/1999/xlink" width="1080pt" height="360pt" viewBox="0 0 1080 360" xmlns="http://www.w3.org/2000/svg" version="1.1">
 <metadata>
  <rdf:RDF xmlns:dc="http://purl.org/dc/elements/1.1/" xmlns:cc="http://creativecommons.org/ns#" xmlns:rdf="http://www.w3.org/1999/02/22-rdf-syntax-ns#">
   <cc:Work>
    <dc:type rdf:resource="http://purl.org/dc/dcmitype/StillImage"/>
    <dc:date>2026-02-04T00:52:27.477195</dc:date>
    <dc:format>image/svg+xml</dc:format>
    <dc:creator>
     <cc:Agent>
      <dc:title>Matplotlib v3.8.0, https://matplotlib.org/</dc:title>
     </cc:Agent>
    </dc:creator>
   </cc:Work>
  </rdf:RDF>
 </metadata>
 <defs>
  <style type="text/css">*{stroke-linejoin: round; stroke-linecap: butt}</style>
 </defs>
 <g id="figure_1">
  <g id="patch_1">
   <path d="M 0 360 
L 1080 360 
L 1080 0 
L 0 0 
z
" style="fill: #ffffff"/>
  </g>
  <g id="axes_1">
   <g id="patch_2">
    <path d="M 135 320.4 
L 515.454545 320.4 
L 515.454545 43.2 
L 135 43.2 
z
" style="fill: #ffffff"/>
   </g>
   <g id="PolyCollection_1">
    <defs>
     <path id="m0816b35985" d="M 152.293388 -66.705442 
L 152.293388 -65.298632 
L 158.057851 -65.580784 
L 163.822314 -65.408695 
L 169.586777 -66.048168 
L 175.35124 -66.367102 
L 181.115702 -66.859866 
L 186.880165 -68.524151 
L 192.644628 -68.507595 
L 198.409091 -69.030117 
L 204.173554 -70.268693 
L 209.938017 -72.135511 
L 215.702479 -73.539548 
L 221.466942 -74.965669 
L 227.231405 -74.619607 
L 232.995868 -75.872018 
L 238.760331 -77.635378 
L 244.524793 -77.963049 
L 250.289256 -78.830711 
L 256.053719 -82.696705 
L 261.818182 -86.556838 
L 267.582645 -91.192888 
L 273.347107 -96.157115 
L 279.11157 -102.606244 
L 284.876033 -111.090457 
L 290.640496 -119.520554 
L 296.404959 -128.505109 
L 302.169421 -136.67515 
L 307.933884 -146.782184 
L 313.698347 -155.038978 
L 319.46281 -165.223447 
L 325.227273 -176.03363 
L 330.991736 -186.550023 
L 336.756198 -196.372879 
L 342.520661 -206.387806 
L 348.285124 -216.143222 
L 354.049587 -233.439311 
L 359.81405 -248.44734 
L 365.578512 -259.999453 
L 371.342975 -268.115855 
L 377.107438 -274.996506 
L 382.871901 -277.926832 
L 388.636364 -271.253169 
L 394.400826 -254.87588 
L 400.165289 -234.035087 
L 405.929752 -212.239929 
L 411.694215 -191.411575 
L 417.458678 -167.153004 
L 423.22314 -148.336538 
L 428.987603 -134.10635 
L 434.752066 -121.739935 
L 440.516529 -111.062621 
L 446.280992 -103.476494 
L 452.045455 -96.422474 
L 457.809917 -91.19896 
L 463.57438 -84.088572 
L 469.338843 -79.588442 
L 475.103306 -76.624599 
L 480.867769 -73.848653 
L 486.632231 -71.707498 
L 492.396694 -70.103123 
L 498.161157 -68.64146 
L 498.161157 -70.365823 
L 498.161157 -70.365823 
L 492.396694 -72.136411 
L 486.632231 -74.302995 
L 480.867769 -77.010216 
L 475.103306 -80.698771 
L 469.338843 -84.19943 
L 463.57438 -90.473469 
L 457.809917 -99.524334 
L 452.045455 -106.691114 
L 446.280992 -116.337057 
L 440.516529 -126.528308 
L 434.752066 -138.476749 
L 428.987603 -152.507048 
L 423.22314 -166.828408 
L 417.458678 -185.182825 
L 411.694215 -208.330597 
L 405.929752 -226.289251 
L 400.165289 -245.435935 
L 394.400826 -263.382151 
L 388.636364 -277.172535 
L 382.871901 -282.889166 
L 377.107438 -279.893699 
L 371.342975 -272.767931 
L 365.578512 -266.877913 
L 359.81405 -257.420396 
L 354.049587 -244.415587 
L 348.285124 -228.85046 
L 342.520661 -219.75108 
L 336.756198 -210.372503 
L 330.991736 -202.956689 
L 325.227273 -191.924744 
L 319.46281 -180.109171 
L 313.698347 -169.82272 
L 307.933884 -161.379552 
L 302.169421 -150.476956 
L 296.404959 -141.408328 
L 290.640496 -130.999378 
L 284.876033 -121.113387 
L 279.11157 -111.820222 
L 273.347107 -103.724223 
L 267.582645 -97.91428 
L 261.818182 -92.31487 
L 256.053719 -88.094377 
L 250.289256 -83.341035 
L 244.524793 -82.592572 
L 238.760331 -81.842826 
L 232.995868 -79.296519 
L 227.231405 -77.316679 
L 221.466942 -77.509325 
L 215.702479 -75.703195 
L 209.938017 -73.874982 
L 204.173554 -71.970841 
L 198.409091 -70.515874 
L 192.644628 -69.960979 
L 186.880165 -69.944424 
L 181.115702 -67.837749 
L 175.35124 -67.253096 
L 169.586777 -67.033322 
L 163.822314 -66.595378 
L 158.057851 -66.961998 
L 152.293388 -66.705442 
z
" style="stroke: #5c9bd5; stroke-opacity: 0.2"/>
    </defs>
    <g clip-path="url(#p7f3fdf213d)">
     <use xlink:href="#m0816b35985" x="0" y="360" style="fill: #5c9bd5; fill-opacity: 0.2; stroke: #5c9bd5; stroke-opacity: 0.2"/>
    </g>
   </g>
   <g id="PolyCollection_2">
    <defs>
     <path id="m005ee2a886" d="M 152.293388 -75.729963 
L 152.293388 -71.357947 
L 158.057851 -72.763766 
L 163.822314 -72.54558 
L 169.586777 -73.237945 
L 175.35124 -72.238979 
L 181.115702 -74.737163 
L 186.880165 -74.95903 
L 192.644628 -74.845408 
L 198.409091 -73.692326 
L 204.173554 -73.185405 
L 209.938017 -73.093525 
L 215.702479 -74.808767 
L 221.466942 -73.900152 
L 227.231405 -74.600015 
L 232.995868 -76.529664 
L 238.760331 -78.201334 
L 244.524793 -78.795523 
L 250.289256 -81.23452 
L 256.053719 -83.554213 
L 261.818182 -84.898911 
L 267.582645 -88.627792 
L 273.347107 -91.572142 
L 279.11157 -98.754922 
L 284.876033 -108.235277 
L 290.640496 -117.183655 
L 296.404959 -124.097073 
L 302.169421 -133.240006 
L 307.933884 -141.947146 
L 313.698347 -150.399694 
L 319.46281 -159.048517 
L 325.227273 -164.931584 
L 330.991736 -174.440952 
L 336.756198 -189.309249 
L 342.520661 -194.386177 
L 348.285124 -206.381041 
L 354.049587 -215.729963 
L 359.81405 -226.167232 
L 365.578512 -244.484859 
L 371.342975 -252.853401 
L 377.107438 -250.673648 
L 382.871901 -264.863823 
L 388.636364 -261.480145 
L 394.400826 -252.44588 
L 400.165289 -237.991459 
L 405.929752 -213.762894 
L 411.694215 -193.042088 
L 417.458678 -176.63676 
L 423.22314 -148.686925 
L 428.987603 -129.461719 
L 434.752066 -118.79782 
L 440.516529 -104.976336 
L 446.280992 -93.904986 
L 452.045455 -83.720811 
L 457.809917 -76.623163 
L 463.57438 -72.616071 
L 469.338843 -70.037502 
L 475.103306 -66.236571 
L 480.867769 -66.343725 
L 486.632231 -65.032864 
L 492.396694 -65.032864 
L 498.161157 -63.654545 
L 498.161157 -64.758138 
L 498.161157 -64.758138 
L 492.396694 -66.252932 
L 486.632231 -66.252932 
L 480.867769 -67.815182 
L 475.103306 -67.922336 
L 469.338843 -72.740741 
L 463.57438 -77.344951 
L 457.809917 -81.957194 
L 452.045455 -90.66166 
L 446.280992 -103.462379 
L 440.516529 -116.812479 
L 434.752066 -133.158668 
L 428.987603 -145.479663 
L 423.22314 -166.478021 
L 417.458678 -194.553864 
L 411.694215 -208.316209 
L 405.929752 -227.818968 
L 400.165289 -249.56019 
L 394.400826 -262.400331 
L 388.636364 -270.604736 
L 382.871901 -272.967281 
L 377.107438 -259.862895 
L 371.342975 -261.99281 
L 365.578512 -254.559237 
L 359.81405 -236.962967 
L 354.049587 -227.288455 
L 348.285124 -219.398707 
L 342.520661 -209.845232 
L 336.756198 -206.302826 
L 330.991736 -192.440005 
L 325.227273 -183.274146 
L 319.46281 -176.228211 
L 313.698347 -166.201808 
L 307.933884 -155.97913 
L 302.169421 -146.011043 
L 296.404959 -135.042194 
L 290.640496 -127.590053 
L 284.876033 -117.863206 
L 279.11157 -107.231779 
L 273.347107 -100.048999 
L 267.582645 -97.247127 
L 261.818182 -92.356672 
L 256.053719 -90.828258 
L 250.289256 -88.838284 
L 244.524793 -85.531057 
L 238.760331 -84.688691 
L 232.995868 -82.050693 
L 227.231405 -79.670674 
L 221.466942 -78.933981 
L 215.702479 -79.461922 
L 209.938017 -76.867497 
L 204.173554 -76.775617 
L 198.409091 -77.705251 
L 192.644628 -79.425281 
L 186.880165 -79.311659 
L 181.115702 -79.533526 
L 175.35124 -76.285486 
L 169.586777 -78.159633 
L 163.822314 -77.415442 
L 158.057851 -77.197255 
L 152.293388 -75.729963 
z
" style="stroke: #e57373; stroke-opacity: 0.2"/>
    </defs>
    <g clip-path="url(#p7f3fdf213d)">
     <use xlink:href="#m005ee2a886" x="0" y="360" style="fill: #e57373; fill-opacity: 0.2; stroke: #e57373; stroke-opacity: 0.2"/>
    </g>
   </g>
   <g id="PolyCollection_3">
    <defs>
     <path id="me91ce003f5" d="M 152.293388 -78.958074 
L 152.293388 -72.439503 
L 158.057851 -74.234083 
L 163.822314 -75.111238 
L 169.586777 -75.111238 
L 175.35124 -75.111238 
L 181.115702 -77.042348 
L 186.880165 -76.279575 
L 192.644628 -75.897391 
L 198.409091 -75.97302 
L 204.173554 -76.929304 
L 209.938017 -78.195938 
L 215.702479 -78.195938 
L 221.466942 -79.869399 
L 227.231405 -82.042331 
L 232.995868 -83.513382 
L 238.760331 -85.211686 
L 244.524793 -88.435816 
L 250.289256 -92.937459 
L 256.053719 -96.25772 
L 261.818182 -97.278642 
L 267.582645 -98.949775 
L 273.347107 -106.097788 
L 279.11157 -109.987869 
L 284.876033 -113.900372 
L 290.640496 -119.543832 
L 296.404959 -127.924417 
L 302.169421 -134.416958 
L 307.933884 -141.241794 
L 313.698347 -148.545432 
L 319.46281 -158.266846 
L 325.227273 -169.313468 
L 330.991736 -180.836507 
L 336.756198 -188.907184 
L 342.520661 -199.18528 
L 348.285124 -214.873574 
L 354.049587 -232.823964 
L 359.81405 -249.841726 
L 365.578512 -263.79461 
L 371.342975 -270.49753 
L 377.107438 -282.556951 
L 382.871901 -286.74577 
L 388.636364 -279.790033 
L 394.400826 -258.121803 
L 400.165289 -235.391011 
L 405.929752 -209.897065 
L 411.694215 -189.766267 
L 417.458678 -166.051537 
L 423.22314 -148.939613 
L 428.987603 -135.220011 
L 434.752066 -127.336047 
L 440.516529 -121.407589 
L 446.280992 -118.374228 
L 452.045455 -108.470425 
L 457.809917 -100.394674 
L 463.57438 -91.473515 
L 469.338843 -85.735889 
L 475.103306 -80.888796 
L 480.867769 -74.845408 
L 486.632231 -69.976312 
L 492.396694 -69.917664 
L 498.161157 -68.038729 
L 498.161157 -70.429846 
L 498.161157 -70.429846 
L 492.396694 -72.860578 
L 486.632231 -72.801931 
L 480.867769 -79.425281 
L 475.103306 -86.310896 
L 469.338843 -92.95625 
L 463.57438 -100.147626 
L 457.809917 -111.33825 
L 452.045455 -121.937725 
L 446.280992 -135.018816 
L 440.516529 -139.168234 
L 434.752066 -147.605335 
L 428.987603 -155.523485 
L 423.22314 -170.535 
L 417.458678 -186.463861 
L 411.694215 -207.282363 
L 405.929752 -224.502017 
L 400.165289 -247.850971 
L 394.400826 -266.780299 
L 388.636364 -286.772189 
L 382.871901 -292.745455 
L 377.107438 -288.314938 
L 371.342975 -277.389465 
L 365.578512 -271.163382 
L 359.81405 -259.258261 
L 354.049587 -243.235238 
L 348.285124 -226.708288 
L 342.520661 -212.228909 
L 336.756198 -203.831778 
L 330.991736 -197.536897 
L 325.227273 -187.511598 
L 319.46281 -177.009882 
L 313.698347 -166.619514 
L 307.933884 -159.557593 
L 302.169421 -152.01687 
L 296.404959 -144.143853 
L 290.640496 -133.849212 
L 284.876033 -126.563669 
L 279.11157 -121.856837 
L 273.347107 -117.127583 
L 267.582645 -108.473481 
L 261.818182 -105.834947 
L 256.053719 -105.419313 
L 250.289256 -101.556794 
L 244.524793 -97.439102 
L 238.760331 -93.480453 
L 232.995868 -92.305645 
L 227.231405 -90.903585 
L 221.466942 -88.766849 
L 215.702479 -86.130643 
L 209.938017 -86.130643 
L 204.173554 -84.524164 
L 198.409091 -82.607337 
L 192.644628 -82.682966 
L 186.880165 -83.737337 
L 181.115702 -84.41112 
L 175.35124 -82.032563 
L 169.586777 -82.032563 
L 163.822314 -82.032563 
L 158.057851 -81.473162 
L 152.293388 -78.958074 
z
" style="stroke: #e57373; stroke-opacity: 0.2"/>
    </defs>
    <g clip-path="url(#p7f3fdf213d)">
     <use xlink:href="#me91ce003f5" x="0" y="360" style="fill: #e57373; fill-opacity: 0.2; stroke: #e57373; stroke-opacity: 0.2"/>
    </g>
   </g>
   <g id="matplotlib.axis_1">
    <g id="xtick_1">
     <g id="line2d_1">
      <defs>
       <path id="m0f9db4b28f" d="M 0 0 
L 0 3.5 
" style="stroke: #000000; stroke-width: 0.8"/>
      </defs>
      <g>
       <use xlink:href="#m0f9db4b28f" x="281.993802" y="320.4" style="stroke: #000000; stroke-width: 0.8"/>
      </g>
     </g>
     <g id="text_1">
      <!-- -1 -->
      <g transform="translate(277.008645 334.998438) scale(0.1 -0.1)">
       <defs>
        <path id="DejaVuSans-2d" d="M 313 2009 
L 1997 2009 
L 1997 1497 
L 313 1497 
L 313 2009 
z
" transform="scale(0.015625)"/>
        <path id="DejaVuSans-31" d="M 794 531 
L 1825 531 
L 1825 4091 
L 703 3866 
L 703 4441 
L 1819 4666 
L 2450 4666 
L 2450 531 
L 3481 531 
L 3481 0 
L 794 0 
L 794 531 
z
" transform="scale(0.015625)"/>
       </defs>
       <use xlink:href="#DejaVuSans-2d"/>
       <use xlink:href="#DejaVuSans-31" x="36.083984"/>
      </g>
     </g>
    </g>
    <g id="xtick_2">
     <g id="line2d_2">
      <g>
       <use xlink:href="#m0f9db4b28f" x="325.227273" y="320.4" style="stroke: #000000; stroke-width: 0.8"/>
      </g>
     </g>
     <g id="text_2">
      <!-- 0 -->
      <g transform="translate(322.046023 334.998438) scale(0.1 -0.1)">
       <defs>
        <path id="DejaVuSans-30" d="M 2034 4250 
Q 1547 4250 1301 3770 
Q 1056 3291 1056 2328 
Q 1056 1369 1301 889 
Q 1547 409 2034 409 
Q 2525 409 2770 889 
Q 3016 1369 3016 2328 
Q 3016 3291 2770 3770 
Q 2525 4250 2034 4250 
z
M 2034 4750 
Q 2819 4750 3233 4129 
Q 3647 3509 3647 2328 
Q 3647 1150 3233 529 
Q 2819 -91 2034 -91 
Q 1250 -91 836 529 
Q 422 1150 422 2328 
Q 422 3509 836 4129 
Q 1250 4750 2034 4750 
z
" transform="scale(0.015625)"/>
       </defs>
       <use xlink:href="#DejaVuSans-30"/>
      </g>
     </g>
    </g>
    <g id="xtick_3">
     <g id="line2d_3">
      <g>
       <use xlink:href="#m0f9db4b28f" x="428.987603" y="320.4" style="stroke: #000000; stroke-width: 0.8"/>
      </g>
     </g>
     <g id="text_3">
      <!-- 2.4 -->
      <g transform="translate(421.036041 334.998438) scale(0.1 -0.1)">
       <defs>
        <path id="DejaVuSans-32" d="M 1228 531 
L 3431 531 
L 3431 0 
L 469 0 
L 469 531 
Q 828 903 1448 1529 
Q 2069 2156 2228 2338 
Q 2531 2678 2651 2914 
Q 2772 3150 2772 3378 
Q 2772 3750 2511 3984 
Q 2250 4219 1831 4219 
Q 1534 4219 1204 4116 
Q 875 4013 500 3803 
L 500 4441 
Q 881 4594 1212 4672 
Q 1544 4750 1819 4750 
Q 2544 4750 2975 4387 
Q 3406 4025 3406 3419 
Q 3406 3131 3298 2873 
Q 3191 2616 2906 2266 
Q 2828 2175 2409 1742 
Q 1991 1309 1228 531 
z
" transform="scale(0.015625)"/>
        <path id="DejaVuSans-2e" d="M 684 794 
L 1344 794 
L 1344 0 
L 684 0 
L 684 794 
z
" transform="scale(0.015625)"/>
        <path id="DejaVuSans-34" d="M 2419 4116 
L 825 1625 
L 2419 1625 
L 2419 4116 
z
M 2253 4666 
L 3047 4666 
L 3047 1625 
L 3713 1625 
L 3713 1100 
L 3047 1100 
L 3047 0 
L 2419 0 
L 2419 1100 
L 313 1100 
L 313 1709 
L 2253 4666 
z
" transform="scale(0.015625)"/>
       </defs>
       <use xlink:href="#DejaVuSans-32"/>
       <use xlink:href="#DejaVuSans-2e" x="63.623047"/>
       <use xlink:href="#DejaVuSans-34" x="95.410156"/>
      </g>
     </g>
    </g>
    <g id="text_4">
     <!-- Time (s) -->
     <g transform="translate(298.799695 350.956094) scale(0.13 -0.13)">
      <defs>
       <path id="DejaVuSans-54" d="M -19 4666 
L 3928 4666 
L 3928 4134 
L 2272 4134 
L 2272 0 
L 1638 0 
L 1638 4134 
L -19 4134 
L -19 4666 
z
" transform="scale(0.015625)"/>
       <path id="DejaVuSans-69" d="M 603 3500 
L 1178 3500 
L 1178 0 
L 603 0 
L 603 3500 
z
M 603 4863 
L 1178 4863 
L 1178 4134 
L 603 4134 
L 603 4863 
z
" transform="scale(0.015625)"/>
       <path id="DejaVuSans-6d" d="M 3328 2828 
Q 3544 3216 3844 3400 
Q 4144 3584 4550 3584 
Q 5097 3584 5394 3201 
Q 5691 2819 5691 2113 
L 5691 0 
L 5113 0 
L 5113 2094 
Q 5113 2597 4934 2840 
Q 4756 3084 4391 3084 
Q 3944 3084 3684 2787 
Q 3425 2491 3425 1978 
L 3425 0 
L 2847 0 
L 2847 2094 
Q 2847 2600 2669 2842 
Q 2491 3084 2119 3084 
Q 1678 3084 1418 2786 
Q 1159 2488 1159 1978 
L 1159 0 
L 581 0 
L 581 3500 
L 1159 3500 
L 1159 2956 
Q 1356 3278 1631 3431 
Q 1906 3584 2284 3584 
Q 2666 3584 2933 3390 
Q 3200 3197 3328 2828 
z
" transform="scale(0.015625)"/>
       <path id="DejaVuSans-65" d="M 3597 1894 
L 3597 1613 
L 953 1613 
Q 991 1019 1311 708 
Q 1631 397 2203 397 
Q 2534 397 2845 478 
Q 3156 559 3463 722 
L 3463 178 
Q 3153 47 2828 -22 
Q 2503 -91 2169 -91 
Q 1331 -91 842 396 
Q 353 884 353 1716 
Q 353 2575 817 3079 
Q 1281 3584 2069 3584 
Q 2775 3584 3186 3129 
Q 3597 2675 3597 1894 
z
M 3022 2063 
Q 3016 2534 2758 2815 
Q 2500 3097 2075 3097 
Q 1594 3097 1305 2825 
Q 1016 2553 972 2059 
L 3022 2063 
z
" transform="scale(0.015625)"/>
       <path id="DejaVuSans-20" transform="scale(0.015625)"/>
       <path id="DejaVuSans-28" d="M 1984 4856 
Q 1566 4138 1362 3434 
Q 1159 2731 1159 2009 
Q 1159 1288 1364 580 
Q 1569 -128 1984 -844 
L 1484 -844 
Q 1016 -109 783 600 
Q 550 1309 550 2009 
Q 550 2706 781 3412 
Q 1013 4119 1484 4856 
L 1984 4856 
z
" transform="scale(0.015625)"/>
       <path id="DejaVuSans-73" d="M 2834 3397 
L 2834 2853 
Q 2591 2978 2328 3040 
Q 2066 3103 1784 3103 
Q 1356 3103 1142 2972 
Q 928 2841 928 2578 
Q 928 2378 1081 2264 
Q 1234 2150 1697 2047 
L 1894 2003 
Q 2506 1872 2764 1633 
Q 3022 1394 3022 966 
Q 3022 478 2636 193 
Q 2250 -91 1575 -91 
Q 1294 -91 989 -36 
Q 684 19 347 128 
L 347 722 
Q 666 556 975 473 
Q 1284 391 1588 391 
Q 1994 391 2212 530 
Q 2431 669 2431 922 
Q 2431 1156 2273 1281 
Q 2116 1406 1581 1522 
L 1381 1569 
Q 847 1681 609 1914 
Q 372 2147 372 2553 
Q 372 3047 722 3315 
Q 1072 3584 1716 3584 
Q 2034 3584 2315 3537 
Q 2597 3491 2834 3397 
z
" transform="scale(0.015625)"/>
       <path id="DejaVuSans-29" d="M 513 4856 
L 1013 4856 
Q 1481 4119 1714 3412 
Q 1947 2706 1947 2009 
Q 1947 1309 1714 600 
Q 1481 -109 1013 -844 
L 513 -844 
Q 928 -128 1133 580 
Q 1338 1288 1338 2009 
Q 1338 2731 1133 3434 
Q 928 4138 513 4856 
z
" transform="scale(0.015625)"/>
      </defs>
      <use xlink:href="#DejaVuSans-54"/>
      <use xlink:href="#DejaVuSans-69" x="57.958984"/>
      <use xlink:href="#DejaVuSans-6d" x="85.742188"/>
      <use xlink:href="#DejaVuSans-65" x="183.154297"/>
      <use xlink:href="#DejaVuSans-20" x="244.677734"/>
      <use xlink:href="#DejaVuSans-28" x="276.464844"/>
      <use xlink:href="#DejaVuSans-73" x="315.478516"/>
      <use xlink:href="#DejaVuSans-29" x="367.578125"/>
     </g>
    </g>
   </g>
   <g id="matplotlib.axis_2">
    <g id="ytick_1">
     <g id="line2d_4">
      <defs>
       <path id="m2b276d8a1d" d="M 0 0 
L -3.5 0 
" style="stroke: #000000; stroke-width: 0.8"/>
      </defs>
      <g>
       <use xlink:href="#m2b276d8a1d" x="135" y="297.230214" style="stroke: #000000; stroke-width: 0.8"/>
      </g>
     </g>
     <g id="text_5">
      <!-- 0 -->
      <g transform="translate(121.6375 301.029433) scale(0.1 -0.1)">
       <use xlink:href="#DejaVuSans-30"/>
      </g>
     </g>
    </g>
    <g id="ytick_2">
     <g id="line2d_5">
      <g>
       <use xlink:href="#m2b276d8a1d" x="135" y="257.00665" style="stroke: #000000; stroke-width: 0.8"/>
      </g>
     </g>
     <g id="text_6">
      <!-- 1 -->
      <g transform="translate(121.6375 260.805869) scale(0.1 -0.1)">
       <use xlink:href="#DejaVuSans-31"/>
      </g>
     </g>
    </g>
    <g id="ytick_3">
     <g id="line2d_6">
      <g>
       <use xlink:href="#m2b276d8a1d" x="135" y="216.783086" style="stroke: #000000; stroke-width: 0.8"/>
      </g>
     </g>
     <g id="text_7">
      <!-- 2 -->
      <g transform="translate(121.6375 220.582304) scale(0.1 -0.1)">
       <use xlink:href="#DejaVuSans-32"/>
      </g>
     </g>
    </g>
    <g id="ytick_4">
     <g id="line2d_7">
      <g>
       <use xlink:href="#m2b276d8a1d" x="135" y="176.559522" style="stroke: #000000; stroke-width: 0.8"/>
      </g>
     </g>
     <g id="text_8">
      <!-- 3 -->
      <g transform="translate(121.6375 180.35874) scale(0.1 -0.1)">
       <defs>
        <path id="DejaVuSans-33" d="M 2597 2516 
Q 3050 2419 3304 2112 
Q 3559 1806 3559 1356 
Q 3559 666 3084 287 
Q 2609 -91 1734 -91 
Q 1441 -91 1130 -33 
Q 819 25 488 141 
L 488 750 
Q 750 597 1062 519 
Q 1375 441 1716 441 
Q 2309 441 2620 675 
Q 2931 909 2931 1356 
Q 2931 1769 2642 2001 
Q 2353 2234 1838 2234 
L 1294 2234 
L 1294 2753 
L 1863 2753 
Q 2328 2753 2575 2939 
Q 2822 3125 2822 3475 
Q 2822 3834 2567 4026 
Q 2313 4219 1838 4219 
Q 1578 4219 1281 4162 
Q 984 4106 628 3988 
L 628 4550 
Q 988 4650 1302 4700 
Q 1616 4750 1894 4750 
Q 2613 4750 3031 4423 
Q 3450 4097 3450 3541 
Q 3450 3153 3228 2886 
Q 3006 2619 2597 2516 
z
" transform="scale(0.015625)"/>
       </defs>
       <use xlink:href="#DejaVuSans-33"/>
      </g>
     </g>
    </g>
    <g id="ytick_5">
     <g id="line2d_8">
      <g>
       <use xlink:href="#m2b276d8a1d" x="135" y="136.335957" style="stroke: #000000; stroke-width: 0.8"/>
      </g>
     </g>
     <g id="text_9">
      <!-- 4 -->
      <g transform="translate(121.6375 140.135176) scale(0.1 -0.1)">
       <use xlink:href="#DejaVuSans-34"/>
      </g>
     </g>
    </g>
    <g id="ytick_6">
     <g id="line2d_9">
      <g>
       <use xlink:href="#m2b276d8a1d" x="135" y="96.112393" style="stroke: #000000; stroke-width: 0.8"/>
      </g>
     </g>
     <g id="text_10">
      <!-- 5 -->
      <g transform="translate(121.6375 99.911612) scale(0.1 -0.1)">
       <defs>
        <path id="DejaVuSans-35" d="M 691 4666 
L 3169 4666 
L 3169 4134 
L 1269 4134 
L 1269 2991 
Q 1406 3038 1543 3061 
Q 1681 3084 1819 3084 
Q 2600 3084 3056 2656 
Q 3513 2228 3513 1497 
Q 3513 744 3044 326 
Q 2575 -91 1722 -91 
Q 1428 -91 1123 -41 
Q 819 9 494 109 
L 494 744 
Q 775 591 1075 516 
Q 1375 441 1709 441 
Q 2250 441 2565 725 
Q 2881 1009 2881 1497 
Q 2881 1984 2565 2268 
Q 2250 2553 1709 2553 
Q 1456 2553 1204 2497 
Q 953 2441 691 2322 
L 691 4666 
z
" transform="scale(0.015625)"/>
       </defs>
       <use xlink:href="#DejaVuSans-35"/>
      </g>
     </g>
    </g>
    <g id="ytick_7">
     <g id="line2d_10">
      <g>
       <use xlink:href="#m2b276d8a1d" x="135" y="55.888829" style="stroke: #000000; stroke-width: 0.8"/>
      </g>
     </g>
     <g id="text_11">
      <!-- 6 -->
      <g transform="translate(121.6375 59.688048) scale(0.1 -0.1)">
       <defs>
        <path id="DejaVuSans-36" d="M 2113 2584 
Q 1688 2584 1439 2293 
Q 1191 2003 1191 1497 
Q 1191 994 1439 701 
Q 1688 409 2113 409 
Q 2538 409 2786 701 
Q 3034 994 3034 1497 
Q 3034 2003 2786 2293 
Q 2538 2584 2113 2584 
z
M 3366 4563 
L 3366 3988 
Q 3128 4100 2886 4159 
Q 2644 4219 2406 4219 
Q 1781 4219 1451 3797 
Q 1122 3375 1075 2522 
Q 1259 2794 1537 2939 
Q 1816 3084 2150 3084 
Q 2853 3084 3261 2657 
Q 3669 2231 3669 1497 
Q 3669 778 3244 343 
Q 2819 -91 2113 -91 
Q 1303 -91 875 529 
Q 447 1150 447 2328 
Q 447 3434 972 4092 
Q 1497 4750 2381 4750 
Q 2619 4750 2861 4703 
Q 3103 4656 3366 4563 
z
" transform="scale(0.015625)"/>
       </defs>
       <use xlink:href="#DejaVuSans-36"/>
      </g>
     </g>
    </g>
    <g id="text_12">
     <!-- lick rate (lick/s) -->
     <g transform="translate(115.557812 220.170312) rotate(-90) scale(0.1 -0.1)">
      <defs>
       <path id="DejaVuSans-6c" d="M 603 4863 
L 1178 4863 
L 1178 0 
L 603 0 
L 603 4863 
z
" transform="scale(0.015625)"/>
       <path id="DejaVuSans-63" d="M 3122 3366 
L 3122 2828 
Q 2878 2963 2633 3030 
Q 2388 3097 2138 3097 
Q 1578 3097 1268 2742 
Q 959 2388 959 1747 
Q 959 1106 1268 751 
Q 1578 397 2138 397 
Q 2388 397 2633 464 
Q 2878 531 3122 666 
L 3122 134 
Q 2881 22 2623 -34 
Q 2366 -91 2075 -91 
Q 1284 -91 818 406 
Q 353 903 353 1747 
Q 353 2603 823 3093 
Q 1294 3584 2113 3584 
Q 2378 3584 2631 3529 
Q 2884 3475 3122 3366 
z
" transform="scale(0.015625)"/>
       <path id="DejaVuSans-6b" d="M 581 4863 
L 1159 4863 
L 1159 1991 
L 2875 3500 
L 3609 3500 
L 1753 1863 
L 3688 0 
L 2938 0 
L 1159 1709 
L 1159 0 
L 581 0 
L 581 4863 
z
" transform="scale(0.015625)"/>
       <path id="DejaVuSans-72" d="M 2631 2963 
Q 2534 3019 2420 3045 
Q 2306 3072 2169 3072 
Q 1681 3072 1420 2755 
Q 1159 2438 1159 1844 
L 1159 0 
L 581 0 
L 581 3500 
L 1159 3500 
L 1159 2956 
Q 1341 3275 1631 3429 
Q 1922 3584 2338 3584 
Q 2397 3584 2469 3576 
Q 2541 3569 2628 3553 
L 2631 2963 
z
" transform="scale(0.015625)"/>
       <path id="DejaVuSans-61" d="M 2194 1759 
Q 1497 1759 1228 1600 
Q 959 1441 959 1056 
Q 959 750 1161 570 
Q 1363 391 1709 391 
Q 2188 391 2477 730 
Q 2766 1069 2766 1631 
L 2766 1759 
L 2194 1759 
z
M 3341 1997 
L 3341 0 
L 2766 0 
L 2766 531 
Q 2569 213 2275 61 
Q 1981 -91 1556 -91 
Q 1019 -91 701 211 
Q 384 513 384 1019 
Q 384 1609 779 1909 
Q 1175 2209 1959 2209 
L 2766 2209 
L 2766 2266 
Q 2766 2663 2505 2880 
Q 2244 3097 1772 3097 
Q 1472 3097 1187 3025 
Q 903 2953 641 2809 
L 641 3341 
Q 956 3463 1253 3523 
Q 1550 3584 1831 3584 
Q 2591 3584 2966 3190 
Q 3341 2797 3341 1997 
z
" transform="scale(0.015625)"/>
       <path id="DejaVuSans-74" d="M 1172 4494 
L 1172 3500 
L 2356 3500 
L 2356 3053 
L 1172 3053 
L 1172 1153 
Q 1172 725 1289 603 
Q 1406 481 1766 481 
L 2356 481 
L 2356 0 
L 1766 0 
Q 1100 0 847 248 
Q 594 497 594 1153 
L 594 3053 
L 172 3053 
L 172 3500 
L 594 3500 
L 594 4494 
L 1172 4494 
z
" transform="scale(0.015625)"/>
       <path id="DejaVuSans-2f" d="M 1625 4666 
L 2156 4666 
L 531 -594 
L 0 -594 
L 1625 4666 
z
" transform="scale(0.015625)"/>
      </defs>
      <use xlink:href="#DejaVuSans-6c"/>
      <use xlink:href="#DejaVuSans-69" x="27.783203"/>
      <use xlink:href="#DejaVuSans-63" x="55.566406"/>
      <use xlink:href="#DejaVuSans-6b" x="110.546875"/>
      <use xlink:href="#DejaVuSans-20" x="168.457031"/>
      <use xlink:href="#DejaVuSans-72" x="200.244141"/>
      <use xlink:href="#DejaVuSans-61" x="241.357422"/>
      <use xlink:href="#DejaVuSans-74" x="302.636719"/>
      <use xlink:href="#DejaVuSans-65" x="341.845703"/>
      <use xlink:href="#DejaVuSans-20" x="403.369141"/>
      <use xlink:href="#DejaVuSans-28" x="435.15625"/>
      <use xlink:href="#DejaVuSans-6c" x="474.169922"/>
      <use xlink:href="#DejaVuSans-69" x="501.953125"/>
      <use xlink:href="#DejaVuSans-63" x="529.736328"/>
      <use xlink:href="#DejaVuSans-6b" x="584.716797"/>
      <use xlink:href="#DejaVuSans-2f" x="642.626953"/>
      <use xlink:href="#DejaVuSans-73" x="676.318359"/>
      <use xlink:href="#DejaVuSans-29" x="728.417969"/>
     </g>
    </g>
   </g>
   <g id="line2d_11">
    <path d="M 152.293388 293.997963 
L 158.057851 293.728609 
L 163.822314 293.997963 
L 169.586777 293.459255 
L 175.35124 293.189901 
L 181.115702 292.651192 
L 186.880165 290.765713 
L 192.644628 290.765713 
L 198.409091 290.227004 
L 204.173554 288.880233 
L 209.938017 286.994753 
L 215.702479 285.378628 
L 221.466942 283.762503 
L 227.231405 284.031857 
L 232.995868 282.415732 
L 238.760331 280.260898 
L 244.524793 279.722189 
L 250.289256 278.914127 
L 256.053719 274.604459 
L 261.818182 270.564146 
L 267.582645 265.446416 
L 273.347107 260.059331 
L 279.11157 252.786767 
L 284.876033 243.898078 
L 290.640496 234.740034 
L 296.404959 225.043282 
L 302.169421 216.423947 
L 307.933884 205.919132 
L 313.698347 197.569151 
L 319.46281 187.333691 
L 325.227273 176.020813 
L 330.991736 165.246644 
L 336.756198 156.627309 
L 342.520661 146.930557 
L 348.285124 137.503159 
L 354.049587 121.072551 
L 359.81405 107.066132 
L 365.578512 96.561317 
L 371.342975 89.558107 
L 377.107438 82.554897 
L 382.871901 79.592001 
L 388.636364 85.787148 
L 394.400826 100.870985 
L 400.165289 120.264489 
L 405.929752 140.73541 
L 411.694215 160.128914 
L 417.458678 183.832086 
L 423.22314 202.417527 
L 428.987603 216.693301 
L 434.752066 229.891658 
L 440.516529 241.204535 
L 446.280992 250.093225 
L 452.045455 258.443206 
L 457.809917 264.638353 
L 463.57438 272.71898 
L 469.338843 278.106064 
L 475.103306 281.338315 
L 480.867769 284.570565 
L 486.632231 286.994753 
L 492.396694 288.880233 
L 498.161157 290.496358 
" clip-path="url(#p7f3fdf213d)" style="fill: none; stroke: #5c9bd5; stroke-width: 2; stroke-linecap: square"/>
   </g>
   <g id="line2d_12">
    <path d="M 152.293388 286.456045 
L 158.057851 285.019489 
L 163.822314 285.019489 
L 169.586777 284.301211 
L 175.35124 285.737767 
L 181.115702 282.864655 
L 186.880165 282.864655 
L 192.644628 282.864655 
L 198.409091 284.301211 
L 204.173554 285.019489 
L 209.938017 285.019489 
L 215.702479 282.864655 
L 221.466942 283.582933 
L 227.231405 282.864655 
L 232.995868 280.709822 
L 238.760331 278.554988 
L 244.524793 277.83671 
L 250.289256 274.963598 
L 256.053719 272.808764 
L 261.818182 271.372208 
L 267.582645 267.062541 
L 273.347107 264.189429 
L 279.11157 257.00665 
L 284.876033 246.950759 
L 290.640496 237.613146 
L 296.404959 230.430366 
L 302.169421 220.374475 
L 307.933884 211.036862 
L 313.698347 201.699249 
L 319.46281 192.361636 
L 325.227273 185.897135 
L 330.991736 176.559522 
L 336.756198 162.193963 
L 342.520661 157.884295 
L 348.285124 147.110126 
L 354.049587 138.490791 
L 359.81405 128.4349 
L 365.578512 110.477952 
L 371.342975 102.576895 
L 377.107438 104.731728 
L 382.871901 91.084448 
L 388.636364 93.957559 
L 394.400826 102.576895 
L 400.165289 116.224175 
L 405.929752 139.209069 
L 411.694215 159.320851 
L 417.458678 174.404688 
L 423.22314 202.417527 
L 428.987603 222.529309 
L 434.752066 234.021756 
L 440.516529 249.105593 
L 446.280992 261.316317 
L 452.045455 272.808764 
L 457.809917 280.709822 
L 463.57438 285.019489 
L 469.338843 288.610879 
L 475.103306 292.920546 
L 480.867769 292.920546 
L 486.632231 294.357102 
L 492.396694 294.357102 
L 498.161157 295.793658 
" clip-path="url(#p7f3fdf213d)" style="fill: none; stroke: #e57373; stroke-width: 2; stroke-linecap: square"/>
   </g>
   <g id="line2d_13">
    <path d="M 152.293388 284.301211 
L 158.057851 282.146377 
L 163.822314 281.4281 
L 169.586777 281.4281 
L 175.35124 281.4281 
L 181.115702 279.273266 
L 186.880165 279.991544 
L 192.644628 280.709822 
L 198.409091 280.709822 
L 204.173554 279.273266 
L 209.938017 277.83671 
L 215.702479 277.83671 
L 221.466942 275.681876 
L 227.231405 273.527042 
L 232.995868 272.090486 
L 238.760331 270.653931 
L 244.524793 267.062541 
L 250.289256 262.752873 
L 256.053719 259.161484 
L 261.818182 258.443206 
L 267.582645 256.288372 
L 273.347107 248.387315 
L 279.11157 244.077647 
L 284.876033 239.76798 
L 290.640496 233.303478 
L 296.404959 223.965865 
L 302.169421 216.783086 
L 307.933884 209.600306 
L 313.698347 202.417527 
L 319.46281 192.361636 
L 325.227273 181.587467 
L 330.991736 170.813298 
L 336.756198 163.630519 
L 342.520661 154.292906 
L 348.285124 139.209069 
L 354.049587 121.970399 
L 359.81405 105.450006 
L 365.578512 92.521004 
L 371.342975 86.056502 
L 377.107438 74.564055 
L 382.871901 70.254388 
L 388.636364 76.718889 
L 394.400826 97.548949 
L 400.165289 118.379009 
L 405.929752 142.800459 
L 411.694215 161.475685 
L 417.458678 183.742301 
L 423.22314 200.262693 
L 428.987603 214.628252 
L 434.752066 222.529309 
L 440.516529 229.712088 
L 446.280992 233.303478 
L 452.045455 244.795925 
L 457.809917 254.133538 
L 463.57438 264.189429 
L 469.338843 270.653931 
L 475.103306 276.400154 
L 480.867769 282.864655 
L 486.632231 288.610879 
L 492.396694 288.610879 
L 498.161157 290.765713 
" clip-path="url(#p7f3fdf213d)" style="fill: none; stroke-dasharray: 7.4,3.2; stroke-dashoffset: 0; stroke: #e57373; stroke-width: 2"/>
   </g>
   <g id="line2d_14">
    <path d="M 325.227273 307.8 
L 325.227273 55.8 
" clip-path="url(#p7f3fdf213d)" style="fill: none; stroke: #000000; stroke-width: 2.2; stroke-linecap: square"/>
   </g>
   <g id="patch_3">
    <path d="M 135 320.4 
L 135 43.2 
" style="fill: none; stroke: #000000; stroke-width: 0.8; stroke-linejoin: miter; stroke-linecap: square"/>
   </g>
   <g id="patch_4">
    <path d="M 135 320.4 
L 515.454545 320.4 
" style="fill: none; stroke: #000000; stroke-width: 0.8; stroke-linejoin: miter; stroke-linecap: square"/>
   </g>
   <g id="text_13">
    <!-- lick_rate around reward (ctl) -->
    <g transform="translate(240.340398 37.2) scale(0.12 -0.12)">
     <defs>
      <path id="DejaVuSans-5f" d="M 3263 -1063 
L 3263 -1509 
L -63 -1509 
L -63 -1063 
L 3263 -1063 
z
" transform="scale(0.015625)"/>
      <path id="DejaVuSans-6f" d="M 1959 3097 
Q 1497 3097 1228 2736 
Q 959 2375 959 1747 
Q 959 1119 1226 758 
Q 1494 397 1959 397 
Q 2419 397 2687 759 
Q 2956 1122 2956 1747 
Q 2956 2369 2687 2733 
Q 2419 3097 1959 3097 
z
M 1959 3584 
Q 2709 3584 3137 3096 
Q 3566 2609 3566 1747 
Q 3566 888 3137 398 
Q 2709 -91 1959 -91 
Q 1206 -91 779 398 
Q 353 888 353 1747 
Q 353 2609 779 3096 
Q 1206 3584 1959 3584 
z
" transform="scale(0.015625)"/>
      <path id="DejaVuSans-75" d="M 544 1381 
L 544 3500 
L 1119 3500 
L 1119 1403 
Q 1119 906 1312 657 
Q 1506 409 1894 409 
Q 2359 409 2629 706 
Q 2900 1003 2900 1516 
L 2900 3500 
L 3475 3500 
L 3475 0 
L 2900 0 
L 2900 538 
Q 2691 219 2414 64 
Q 2138 -91 1772 -91 
Q 1169 -91 856 284 
Q 544 659 544 1381 
z
M 1991 3584 
L 1991 3584 
z
" transform="scale(0.015625)"/>
      <path id="DejaVuSans-6e" d="M 3513 2113 
L 3513 0 
L 2938 0 
L 2938 2094 
Q 2938 2591 2744 2837 
Q 2550 3084 2163 3084 
Q 1697 3084 1428 2787 
Q 1159 2491 1159 1978 
L 1159 0 
L 581 0 
L 581 3500 
L 1159 3500 
L 1159 2956 
Q 1366 3272 1645 3428 
Q 1925 3584 2291 3584 
Q 2894 3584 3203 3211 
Q 3513 2838 3513 2113 
z
" transform="scale(0.015625)"/>
      <path id="DejaVuSans-64" d="M 2906 2969 
L 2906 4863 
L 3481 4863 
L 3481 0 
L 2906 0 
L 2906 525 
Q 2725 213 2448 61 
Q 2172 -91 1784 -91 
Q 1150 -91 751 415 
Q 353 922 353 1747 
Q 353 2572 751 3078 
Q 1150 3584 1784 3584 
Q 2172 3584 2448 3432 
Q 2725 3281 2906 2969 
z
M 947 1747 
Q 947 1113 1208 752 
Q 1469 391 1925 391 
Q 2381 391 2643 752 
Q 2906 1113 2906 1747 
Q 2906 2381 2643 2742 
Q 2381 3103 1925 3103 
Q 1469 3103 1208 2742 
Q 947 2381 947 1747 
z
" transform="scale(0.015625)"/>
      <path id="DejaVuSans-77" d="M 269 3500 
L 844 3500 
L 1563 769 
L 2278 3500 
L 2956 3500 
L 3675 769 
L 4391 3500 
L 4966 3500 
L 4050 0 
L 3372 0 
L 2619 2869 
L 1863 0 
L 1184 0 
L 269 3500 
z
" transform="scale(0.015625)"/>
     </defs>
     <use xlink:href="#DejaVuSans-6c"/>
     <use xlink:href="#DejaVuSans-69" x="27.783203"/>
     <use xlink:href="#DejaVuSans-63" x="55.566406"/>
     <use xlink:href="#DejaVuSans-6b" x="110.546875"/>
     <use xlink:href="#DejaVuSans-5f" x="168.457031"/>
     <use xlink:href="#DejaVuSans-72" x="218.457031"/>
     <use xlink:href="#DejaVuSans-61" x="259.570312"/>
     <use xlink:href="#DejaVuSans-74" x="320.849609"/>
     <use xlink:href="#DejaVuSans-65" x="360.058594"/>
     <use xlink:href="#DejaVuSans-20" x="421.582031"/>
     <use xlink:href="#DejaVuSans-61" x="453.369141"/>
     <use xlink:href="#DejaVuSans-72" x="514.648438"/>
     <use xlink:href="#DejaVuSans-6f" x="553.511719"/>
     <use xlink:href="#DejaVuSans-75" x="614.693359"/>
     <use xlink:href="#DejaVuSans-6e" x="678.072266"/>
     <use xlink:href="#DejaVuSans-64" x="741.451172"/>
     <use xlink:href="#DejaVuSans-20" x="804.927734"/>
     <use xlink:href="#DejaVuSans-72" x="836.714844"/>
     <use xlink:href="#DejaVuSans-65" x="875.578125"/>
     <use xlink:href="#DejaVuSans-77" x="937.101562"/>
     <use xlink:href="#DejaVuSans-61" x="1018.888672"/>
     <use xlink:href="#DejaVuSans-72" x="1080.167969"/>
     <use xlink:href="#DejaVuSans-64" x="1119.53125"/>
     <use xlink:href="#DejaVuSans-20" x="1183.007812"/>
     <use xlink:href="#DejaVuSans-28" x="1214.794922"/>
     <use xlink:href="#DejaVuSans-63" x="1253.808594"/>
     <use xlink:href="#DejaVuSans-74" x="1308.789062"/>
     <use xlink:href="#DejaVuSans-6c" x="1347.998047"/>
     <use xlink:href="#DejaVuSans-29" x="1375.78125"/>
    </g>
   </g>
  </g>
  <g id="axes_2">
   <g id="patch_5">
    <path d="M 591.545455 320.4 
L 972 320.4 
L 972 43.2 
L 591.545455 43.2 
z
" style="fill: #ffffff"/>
   </g>
   <g id="PolyCollection_4">
    <defs>
     <path id="mba88cbb811" d="M 608.838843 -64.325872 
L 608.838843 -63.654545 
L 614.603306 -64.243509 
L 620.367769 -64.832472 
L 626.132231 -64.832472 
L 631.896694 -65.421436 
L 637.661157 -65.421436 
L 643.42562 -64.243509 
L 649.190083 -64.243509 
L 654.954545 -63.654545 
L 660.719008 -63.654545 
L 666.483471 -67.082197 
L 672.247934 -67.755799 
L 678.012397 -69.037581 
L 683.77686 -72.318062 
L 689.541322 -74.891308 
L 695.305785 -77.551316 
L 701.070248 -79.725046 
L 706.834711 -78.396361 
L 712.599174 -78.173092 
L 718.363636 -77.56748 
L 724.128099 -75.471983 
L 729.892562 -77.04789 
L 735.657025 -78.84252 
L 741.421488 -83.084258 
L 747.18595 -88.673039 
L 752.950413 -100.239122 
L 758.714876 -109.950891 
L 764.479339 -121.77267 
L 770.243802 -129.49775 
L 776.008264 -140.273011 
L 781.772727 -149.082424 
L 787.53719 -160.558424 
L 793.301653 -176.862589 
L 799.066116 -184.520261 
L 804.830579 -202.111312 
L 810.595041 -215.177902 
L 816.359504 -234.175866 
L 822.123967 -248.539213 
L 827.88843 -258.995906 
L 833.652893 -250.677923 
L 839.417355 -252.391684 
L 845.181818 -239.030217 
L 850.946281 -235.18307 
L 856.710744 -215.623764 
L 862.475207 -199.624413 
L 868.239669 -179.763224 
L 874.004132 -168.508469 
L 879.768595 -152.221969 
L 885.533058 -138.367481 
L 891.297521 -120.105766 
L 897.061983 -105.174252 
L 902.826446 -91.173631 
L 908.590909 -80.409137 
L 914.355372 -72.373013 
L 920.119835 -67.452812 
L 925.884298 -65.116209 
L 931.64876 -65.0291 
L 937.413223 -65.625194 
L 943.177686 -64.832472 
L 948.942149 -64.832472 
L 954.706612 -64.832472 
L 954.706612 -66.175126 
L 954.706612 -66.175126 
L 948.942149 -66.175126 
L 943.177686 -66.175126 
L 937.413223 -66.895995 
L 931.64876 -65.978499 
L 925.884298 -65.89139 
L 920.119835 -68.095559 
L 914.355372 -73.770491 
L 908.590909 -83.897454 
L 902.826446 -95.836817 
L 897.061983 -113.621598 
L 891.297521 -131.989075 
L 885.533058 -154.594303 
L 879.768595 -172.525217 
L 874.004132 -191.051299 
L 868.239669 -204.013992 
L 862.475207 -225.019747 
L 856.710744 -239.292206 
L 850.946281 -256.059073 
L 845.181818 -256.752698 
L 839.417355 -266.095088 
L 833.652893 -260.240897 
L 827.88843 -267.058819 
L 822.123967 -253.298064 
L 816.359504 -237.3896 
L 810.595041 -220.061392 
L 804.830579 -211.937714 
L 799.066116 -194.716183 
L 793.301653 -185.72436 
L 787.53719 -171.756714 
L 781.772727 -159.015266 
L 776.008264 -149.661593 
L 770.243802 -136.219406 
L 764.479339 -127.294989 
L 758.714876 -114.89932 
L 752.950413 -104.934413 
L 747.18595 -92.283047 
L 741.421488 -87.276694 
L 735.657025 -82.436889 
L 729.892562 -81.204338 
L 724.128099 -79.753064 
L 718.363636 -82.198339 
L 712.599174 -83.106318 
L 706.834711 -82.883049 
L 701.070248 -84.581545 
L 695.305785 -82.214503 
L 689.541322 -78.820149 
L 683.77686 -75.339033 
L 678.012397 -71.051562 
L 672.247934 -69.306162 
L 666.483471 -68.466173 
L 660.719008 -64.325872 
L 654.954545 -64.325872 
L 649.190083 -65.250499 
L 643.42562 -65.250499 
L 637.661157 -67.099753 
L 631.896694 -67.099753 
L 626.132231 -66.175126 
L 620.367769 -66.175126 
L 614.603306 -65.250499 
L 608.838843 -64.325872 
z
" style="stroke: #5c9bd5; stroke-opacity: 0.2"/>
    </defs>
    <g clip-path="url(#pbc23579925)">
     <use xlink:href="#mba88cbb811" x="0" y="360" style="fill: #5c9bd5; fill-opacity: 0.2; stroke: #5c9bd5; stroke-opacity: 0.2"/>
    </g>
   </g>
   <g id="PolyCollection_5">
    <defs>
     <path id="mc19c04df59" d="M 608.838843 -64.94229 
L 608.838843 -64.047188 
L 614.603306 -65.996072 
L 620.367769 -64.047188 
L 626.132231 -64.047188 
L 631.896694 -64.047188 
L 637.661157 -64.047188 
L 643.42562 -64.047188 
L 649.190083 -65.617757 
L 654.954545 -64.047188 
L 660.719008 -67.188327 
L 666.483471 -67.188327 
L 672.247934 -68.758896 
L 678.012397 -70.329465 
L 683.77686 -71.900035 
L 689.541322 -70.329465 
L 695.305785 -71.900035 
L 701.070248 -70.329465 
L 706.834711 -70.329465 
L 712.599174 -72.454572 
L 718.363636 -72.871352 
L 724.128099 -75.260809 
L 729.892562 -79.297051 
L 735.657025 -81.762723 
L 741.421488 -88.477683 
L 747.18595 -91.665823 
L 752.950413 -100.634962 
L 758.714876 -116.717141 
L 764.479339 -128.642795 
L 770.243802 -146.157991 
L 776.008264 -159.09787 
L 781.772727 -170.677924 
L 787.53719 -187.790573 
L 793.301653 -203.712118 
L 799.066116 -200.96208 
L 804.830579 -213.21868 
L 810.595041 -223.590314 
L 816.359504 -242.557118 
L 822.123967 -257.884227 
L 827.88843 -265.529705 
L 833.652893 -266.941055 
L 839.417355 -276.315122 
L 845.181818 -272.158094 
L 850.946281 -265.895044 
L 856.710744 -242.985457 
L 862.475207 -224.513992 
L 868.239669 -213.533416 
L 874.004132 -197.324061 
L 879.768595 -180.649285 
L 885.533058 -167.7759 
L 891.297521 -151.307081 
L 897.061983 -144.37912 
L 902.826446 -126.217356 
L 908.590909 -114.611797 
L 914.355372 -101.204806 
L 920.119835 -96.337119 
L 925.884298 -83.333292 
L 931.64876 -75.260809 
L 937.413223 -69.515526 
L 943.177686 -69.515526 
L 948.942149 -64.047188 
L 954.706612 -64.047188 
L 954.706612 -64.94229 
L 954.706612 -64.94229 
L 948.942149 -64.94229 
L 943.177686 -71.582677 
L 937.413223 -71.582677 
L 931.64876 -77.946117 
L 925.884298 -86.0186 
L 920.119835 -97.232222 
L 914.355372 -104.473259 
L 908.590909 -119.319957 
L 902.826446 -135.968088 
L 897.061983 -158.168738 
L 891.297521 -167.385743 
L 885.533058 -187.243096 
L 879.768595 -202.623401 
L 874.004132 -222.274797 
L 868.239669 -238.355373 
L 862.475207 -247.556004 
L 856.710744 -265.410711 
L 850.946281 -286.89978 
L 845.181818 -292.745455 
L 839.417355 -292.624668 
L 833.652893 -277.781286 
L 827.88843 -275.156395 
L 822.123967 -262.620665 
L 816.359504 -245.657844 
L 810.595041 -228.298475 
L 804.830579 -218.488902 
L 799.066116 -206.528054 
L 793.301653 -211.850499 
L 787.53719 -199.518354 
L 781.772727 -184.341072 
L 776.008264 -171.703678 
L 770.243802 -156.389867 
L 764.479339 -137.578891 
L 758.714876 -125.287096 
L 752.950413 -109.079344 
L 747.18595 -97.867276 
L 741.421488 -92.982934 
L 735.657025 -83.552928 
L 729.892562 -81.982359 
L 724.128099 -77.946117 
L 718.363636 -76.299334 
L 712.599174 -76.716113 
L 706.834711 -74.804979 
L 701.070248 -74.804979 
L 695.305785 -77.270651 
L 689.541322 -74.804979 
L 683.77686 -77.270651 
L 678.012397 -74.804979 
L 672.247934 -72.339306 
L 666.483471 -69.873634 
L 660.719008 -69.873634 
L 654.954545 -64.94229 
L 649.190083 -67.407962 
L 643.42562 -64.94229 
L 637.661157 -64.94229 
L 631.896694 -64.94229 
L 626.132231 -64.94229 
L 620.367769 -64.94229 
L 614.603306 -67.029648 
L 608.838843 -64.94229 
z
" style="stroke: #e57373; stroke-opacity: 0.2"/>
    </defs>
    <g clip-path="url(#pbc23579925)">
     <use xlink:href="#mc19c04df59" x="0" y="360" style="fill: #e57373; fill-opacity: 0.2; stroke: #e57373; stroke-opacity: 0.2"/>
    </g>
   </g>
   <g id="PolyCollection_6">
    <defs>
     <path id="mdb6593efad" d="M 608.838843 -67.029648 
L 608.838843 -65.996072 
L 614.603306 -65.996072 
L 620.367769 -67.673985 
L 626.132231 -65.996072 
L 631.896694 -65.996072 
L 637.661157 -65.996072 
L 643.42562 -64.047188 
L 649.190083 -64.047188 
L 654.954545 -64.047188 
L 660.719008 -64.047188 
L 666.483471 -67.673985 
L 672.247934 -67.673985 
L 678.012397 -67.673985 
L 683.77686 -67.673985 
L 689.541322 -67.673985 
L 695.305785 -72.871352 
L 701.070248 -72.454572 
L 706.834711 -68.758896 
L 712.599174 -71.900035 
L 718.363636 -73.470604 
L 724.128099 -73.470604 
L 729.892562 -75.608219 
L 735.657025 -72.871352 
L 741.421488 -71.224568 
L 747.18595 -74.758162 
L 752.950413 -78.068718 
L 758.714876 -85.49521 
L 764.479339 -89.291354 
L 770.243802 -99.112423 
L 776.008264 -118.369149 
L 781.772727 -131.857893 
L 787.53719 -153.188175 
L 793.301653 -172.374021 
L 799.066116 -185.333244 
L 804.830579 -206.420491 
L 810.595041 -229.467024 
L 816.359504 -233.252011 
L 822.123967 -248.713246 
L 827.88843 -253.648289 
L 833.652893 -248.908894 
L 839.417355 -243.944261 
L 845.181818 -232.546696 
L 850.946281 -215.940179 
L 856.710744 -203.090075 
L 862.475207 -188.007716 
L 868.239669 -170.107517 
L 874.004132 -159.569018 
L 879.768595 -147.732863 
L 885.533058 -140.596721 
L 891.297521 -125.223141 
L 897.061983 -110.717666 
L 902.826446 -96.434572 
L 908.590909 -85.23237 
L 914.355372 -75.746468 
L 920.119835 -71.440909 
L 925.884298 -67.673985 
L 931.64876 -65.996072 
L 937.413223 -65.996072 
L 943.177686 -65.996072 
L 948.942149 -64.047188 
L 954.706612 -64.047188 
L 954.706612 -64.94229 
L 954.706612 -64.94229 
L 948.942149 -64.94229 
L 943.177686 -67.029648 
L 937.413223 -67.029648 
L 931.64876 -67.029648 
L 925.884298 -69.387976 
L 920.119835 -73.693535 
L 914.355372 -77.460459 
L 908.590909 -88.155763 
L 902.826446 -101.17101 
L 897.061983 -119.177847 
L 891.297521 -136.962303 
L 885.533058 -157.914895 
L 879.768595 -166.923719 
L 874.004132 -183.341254 
L 868.239669 -197.020203 
L 862.475207 -215.446177 
L 856.710744 -228.617507 
L 850.946281 -235.94861 
L 845.181818 -247.595783 
L 839.417355 -256.379425 
L 833.652893 -259.487275 
L 827.88843 -262.820362 
L 822.123967 -255.646681 
L 816.359504 -238.817985 
L 810.595041 -234.530489 
L 804.830579 -213.178368 
L 799.066116 -193.9032 
L 793.301653 -182.644975 
L 787.53719 -165.504649 
L 781.772727 -142.436275 
L 776.008264 -127.671329 
L 770.243802 -106.565642 
L 764.479339 -96.205503 
L 758.714876 -91.929165 
L 752.950413 -83.210691 
L 747.18595 -78.448765 
L 741.421488 -73.909876 
L 735.657025 -76.299334 
L 729.892562 -81.634949 
L 724.128099 -79.736323 
L 718.363636 -79.736323 
L 712.599174 -77.270651 
L 706.834711 -72.339306 
L 701.070248 -76.716113 
L 695.305785 -76.299334 
L 689.541322 -69.387976 
L 683.77686 -69.387976 
L 678.012397 -69.387976 
L 672.247934 -69.387976 
L 666.483471 -69.387976 
L 660.719008 -64.94229 
L 654.954545 -64.94229 
L 649.190083 -64.94229 
L 643.42562 -64.94229 
L 637.661157 -67.029648 
L 631.896694 -67.029648 
L 626.132231 -67.029648 
L 620.367769 -69.387976 
L 614.603306 -67.029648 
L 608.838843 -67.029648 
z
" style="stroke: #e57373; stroke-opacity: 0.2"/>
    </defs>
    <g clip-path="url(#pbc23579925)">
     <use xlink:href="#mdb6593efad" x="0" y="360" style="fill: #e57373; fill-opacity: 0.2; stroke: #e57373; stroke-opacity: 0.2"/>
    </g>
   </g>
   <g id="matplotlib.axis_3">
    <g id="xtick_4">
     <g id="line2d_15">
      <g>
       <use xlink:href="#m0f9db4b28f" x="738.539256" y="320.4" style="stroke: #000000; stroke-width: 0.8"/>
      </g>
     </g>
     <g id="text_14">
      <!-- -1 -->
      <g transform="translate(733.5541 334.998438) scale(0.1 -0.1)">
       <use xlink:href="#DejaVuSans-2d"/>
       <use xlink:href="#DejaVuSans-31" x="36.083984"/>
      </g>
     </g>
    </g>
    <g id="xtick_5">
     <g id="line2d_16">
      <g>
       <use xlink:href="#m0f9db4b28f" x="781.772727" y="320.4" style="stroke: #000000; stroke-width: 0.8"/>
      </g>
     </g>
     <g id="text_15">
      <!-- 0 -->
      <g transform="translate(778.591477 334.998438) scale(0.1 -0.1)">
       <use xlink:href="#DejaVuSans-30"/>
      </g>
     </g>
    </g>
    <g id="xtick_6">
     <g id="line2d_17">
      <g>
       <use xlink:href="#m0f9db4b28f" x="885.533058" y="320.4" style="stroke: #000000; stroke-width: 0.8"/>
      </g>
     </g>
     <g id="text_16">
      <!-- 2.4 -->
      <g transform="translate(877.581495 334.998438) scale(0.1 -0.1)">
       <use xlink:href="#DejaVuSans-32"/>
       <use xlink:href="#DejaVuSans-2e" x="63.623047"/>
       <use xlink:href="#DejaVuSans-34" x="95.410156"/>
      </g>
     </g>
    </g>
    <g id="text_17">
     <!-- Time (s) -->
     <g transform="translate(755.345149 350.956094) scale(0.13 -0.13)">
      <use xlink:href="#DejaVuSans-54"/>
      <use xlink:href="#DejaVuSans-69" x="57.958984"/>
      <use xlink:href="#DejaVuSans-6d" x="85.742188"/>
      <use xlink:href="#DejaVuSans-65" x="183.154297"/>
      <use xlink:href="#DejaVuSans-20" x="244.677734"/>
      <use xlink:href="#DejaVuSans-28" x="276.464844"/>
      <use xlink:href="#DejaVuSans-73" x="315.478516"/>
      <use xlink:href="#DejaVuSans-29" x="367.578125"/>
     </g>
    </g>
   </g>
   <g id="matplotlib.axis_4">
    <g id="ytick_8">
     <g id="line2d_18">
      <g>
       <use xlink:href="#m2b276d8a1d" x="591.545455" y="297.523382" style="stroke: #000000; stroke-width: 0.8"/>
      </g>
     </g>
     <g id="text_18">
      <!-- 0 -->
      <g transform="translate(578.182955 301.3226) scale(0.1 -0.1)">
       <use xlink:href="#DejaVuSans-30"/>
      </g>
     </g>
    </g>
    <g id="ytick_9">
     <g id="line2d_19">
      <g>
       <use xlink:href="#m2b276d8a1d" x="591.545455" y="252.317478" style="stroke: #000000; stroke-width: 0.8"/>
      </g>
     </g>
     <g id="text_19">
      <!-- 1 -->
      <g transform="translate(578.182955 256.116697) scale(0.1 -0.1)">
       <use xlink:href="#DejaVuSans-31"/>
      </g>
     </g>
    </g>
    <g id="ytick_10">
     <g id="line2d_20">
      <g>
       <use xlink:href="#m2b276d8a1d" x="591.545455" y="207.111574" style="stroke: #000000; stroke-width: 0.8"/>
      </g>
     </g>
     <g id="text_20">
      <!-- 2 -->
      <g transform="translate(578.182955 210.910793) scale(0.1 -0.1)">
       <use xlink:href="#DejaVuSans-32"/>
      </g>
     </g>
    </g>
    <g id="ytick_11">
     <g id="line2d_21">
      <g>
       <use xlink:href="#m2b276d8a1d" x="591.545455" y="161.905671" style="stroke: #000000; stroke-width: 0.8"/>
      </g>
     </g>
     <g id="text_21">
      <!-- 3 -->
      <g transform="translate(578.182955 165.70489) scale(0.1 -0.1)">
       <use xlink:href="#DejaVuSans-33"/>
      </g>
     </g>
    </g>
    <g id="ytick_12">
     <g id="line2d_22">
      <g>
       <use xlink:href="#m2b276d8a1d" x="591.545455" y="116.699767" style="stroke: #000000; stroke-width: 0.8"/>
      </g>
     </g>
     <g id="text_22">
      <!-- 4 -->
      <g transform="translate(578.182955 120.498986) scale(0.1 -0.1)">
       <use xlink:href="#DejaVuSans-34"/>
      </g>
     </g>
    </g>
    <g id="ytick_13">
     <g id="line2d_23">
      <g>
       <use xlink:href="#m2b276d8a1d" x="591.545455" y="71.493864" style="stroke: #000000; stroke-width: 0.8"/>
      </g>
     </g>
     <g id="text_23">
      <!-- 5 -->
      <g transform="translate(578.182955 75.293083) scale(0.1 -0.1)">
       <use xlink:href="#DejaVuSans-35"/>
      </g>
     </g>
    </g>
    <g id="text_24">
     <!-- lick rate (lick/s) -->
     <g transform="translate(572.103267 220.170312) rotate(-90) scale(0.1 -0.1)">
      <use xlink:href="#DejaVuSans-6c"/>
      <use xlink:href="#DejaVuSans-69" x="27.783203"/>
      <use xlink:href="#DejaVuSans-63" x="55.566406"/>
      <use xlink:href="#DejaVuSans-6b" x="110.546875"/>
      <use xlink:href="#DejaVuSans-20" x="168.457031"/>
      <use xlink:href="#DejaVuSans-72" x="200.244141"/>
      <use xlink:href="#DejaVuSans-61" x="241.357422"/>
      <use xlink:href="#DejaVuSans-74" x="302.636719"/>
      <use xlink:href="#DejaVuSans-65" x="341.845703"/>
      <use xlink:href="#DejaVuSans-20" x="403.369141"/>
      <use xlink:href="#DejaVuSans-28" x="435.15625"/>
      <use xlink:href="#DejaVuSans-6c" x="474.169922"/>
      <use xlink:href="#DejaVuSans-69" x="501.953125"/>
      <use xlink:href="#DejaVuSans-63" x="529.736328"/>
      <use xlink:href="#DejaVuSans-6b" x="584.716797"/>
      <use xlink:href="#DejaVuSans-2f" x="642.626953"/>
      <use xlink:href="#DejaVuSans-73" x="676.318359"/>
      <use xlink:href="#DejaVuSans-29" x="728.417969"/>
     </g>
    </g>
   </g>
   <g id="line2d_24">
    <path d="M 608.838843 296.009791 
L 614.603306 295.252996 
L 620.367769 294.496201 
L 626.132231 294.496201 
L 631.896694 293.739405 
L 637.661157 293.739405 
L 643.42562 295.252996 
L 649.190083 295.252996 
L 654.954545 296.009791 
L 660.719008 296.009791 
L 666.483471 292.225815 
L 672.247934 291.469019 
L 678.012397 289.955429 
L 683.77686 286.171453 
L 689.541322 283.144272 
L 695.305785 280.117091 
L 701.070248 277.846705 
L 706.834711 279.360295 
L 712.599174 279.360295 
L 718.363636 280.117091 
L 724.128099 282.387476 
L 729.892562 280.873886 
L 735.657025 279.360295 
L 741.421488 274.819524 
L 747.18595 269.521957 
L 752.950413 257.413233 
L 758.714876 247.574894 
L 764.479339 235.46617 
L 770.243802 227.141422 
L 776.008264 215.032698 
L 781.772727 205.951155 
L 787.53719 193.842431 
L 793.301653 178.706526 
L 799.066116 170.381778 
L 804.830579 152.975487 
L 810.595041 142.380353 
L 816.359504 124.217267 
L 822.123967 109.081362 
L 827.88843 96.972638 
L 833.652893 104.54059 
L 839.417355 100.756614 
L 845.181818 112.108543 
L 850.946281 114.378929 
L 856.710744 132.542015 
L 862.475207 147.67792 
L 868.239669 168.111392 
L 874.004132 180.220116 
L 879.768595 197.626407 
L 885.533058 213.519108 
L 891.297521 233.95258 
L 897.061983 250.602075 
L 902.826446 266.494776 
L 908.590909 277.846705 
L 914.355372 286.928248 
L 920.119835 292.225815 
L 925.884298 294.496201 
L 931.64876 294.496201 
L 937.413223 293.739405 
L 943.177686 294.496201 
L 948.942149 294.496201 
L 954.706612 294.496201 
" clip-path="url(#pbc23579925)" style="fill: none; stroke: #5c9bd5; stroke-width: 2; stroke-linecap: square"/>
   </g>
   <g id="line2d_25">
    <path d="M 608.838843 295.505261 
L 614.603306 293.48714 
L 620.367769 295.505261 
L 626.132231 295.505261 
L 631.896694 295.505261 
L 637.661157 295.505261 
L 643.42562 295.505261 
L 649.190083 293.48714 
L 654.954545 295.505261 
L 660.719008 291.469019 
L 666.483471 291.469019 
L 672.247934 289.450899 
L 678.012397 287.432778 
L 683.77686 285.414657 
L 689.541322 287.432778 
L 695.305785 285.414657 
L 701.070248 287.432778 
L 706.834711 287.432778 
L 712.599174 285.414657 
L 718.363636 285.414657 
L 724.128099 283.396537 
L 729.892562 279.360295 
L 735.657025 277.342175 
L 741.421488 269.269692 
L 747.18595 265.23345 
L 752.950413 255.142847 
L 758.714876 238.997881 
L 764.479339 226.889157 
L 770.243802 208.726071 
L 776.008264 194.599226 
L 781.772727 182.490502 
L 787.53719 166.345536 
L 793.301653 152.218692 
L 799.066116 156.254933 
L 804.830579 144.146209 
L 810.595041 134.055605 
L 816.359504 115.892519 
L 822.123967 99.747554 
L 827.88843 89.65695 
L 833.652893 87.638829 
L 839.417355 75.530105 
L 845.181818 77.548226 
L 850.946281 83.602588 
L 856.710744 105.801916 
L 862.475207 123.965002 
L 868.239669 134.055605 
L 874.004132 150.200571 
L 879.768595 168.363657 
L 885.533058 182.490502 
L 891.297521 200.653588 
L 897.061983 208.726071 
L 902.826446 228.907278 
L 908.590909 243.034123 
L 914.355372 257.160968 
L 920.119835 263.21533 
L 925.884298 275.324054 
L 931.64876 283.396537 
L 937.413223 289.450899 
L 943.177686 289.450899 
L 948.942149 295.505261 
L 954.706612 295.505261 
" clip-path="url(#pbc23579925)" style="fill: none; stroke: #e57373; stroke-width: 2; stroke-linecap: square"/>
   </g>
   <g id="line2d_26">
    <path d="M 608.838843 293.48714 
L 614.603306 293.48714 
L 620.367769 291.469019 
L 626.132231 293.48714 
L 631.896694 293.48714 
L 637.661157 293.48714 
L 643.42562 295.505261 
L 649.190083 295.505261 
L 654.954545 295.505261 
L 660.719008 295.505261 
L 666.483471 291.469019 
L 672.247934 291.469019 
L 678.012397 291.469019 
L 683.77686 291.469019 
L 689.541322 291.469019 
L 695.305785 285.414657 
L 701.070248 285.414657 
L 706.834711 289.450899 
L 712.599174 285.414657 
L 718.363636 283.396537 
L 724.128099 283.396537 
L 729.892562 281.378416 
L 735.657025 285.414657 
L 741.421488 287.432778 
L 747.18595 283.396537 
L 752.950413 279.360295 
L 758.714876 271.287813 
L 764.479339 267.251571 
L 770.243802 257.160968 
L 776.008264 236.979761 
L 781.772727 222.852916 
L 787.53719 200.653588 
L 793.301653 182.490502 
L 799.066116 170.381778 
L 804.830579 150.200571 
L 810.595041 128.001243 
L 816.359504 123.965002 
L 822.123967 107.820036 
L 827.88843 101.765674 
L 833.652893 105.801916 
L 839.417355 109.838157 
L 845.181818 119.92876 
L 850.946281 134.055605 
L 856.710744 144.146209 
L 862.475207 158.273054 
L 868.239669 176.43614 
L 874.004132 188.544864 
L 879.768595 202.671709 
L 885.533058 210.744192 
L 891.297521 228.907278 
L 897.061983 245.052244 
L 902.826446 261.197209 
L 908.590909 273.305933 
L 914.355372 283.396537 
L 920.119835 287.432778 
L 925.884298 291.469019 
L 931.64876 293.48714 
L 937.413223 293.48714 
L 943.177686 293.48714 
L 948.942149 295.505261 
L 954.706612 295.505261 
" clip-path="url(#pbc23579925)" style="fill: none; stroke-dasharray: 7.4,3.2; stroke-dashoffset: 0; stroke: #e57373; stroke-width: 2"/>
   </g>
   <g id="line2d_27">
    <path d="M 781.772727 307.8 
L 781.772727 55.8 
" clip-path="url(#pbc23579925)" style="fill: none; stroke: #000000; stroke-width: 2.2; stroke-linecap: square"/>
   </g>
   <g id="patch_6">
    <path d="M 591.545455 320.4 
L 591.545455 43.2 
" style="fill: none; stroke: #000000; stroke-width: 0.8; stroke-linejoin: miter; stroke-linecap: square"/>
   </g>
   <g id="patch_7">
    <path d="M 591.545455 320.4 
L 972 320.4 
" style="fill: none; stroke: #000000; stroke-width: 0.8; stroke-linejoin: miter; stroke-linecap: square"/>
   </g>
   <g id="text_25">
    <!-- lick_rate around reward (tst) -->
    <g transform="translate(696.373977 37.2) scale(0.12 -0.12)">
     <use xlink:href="#DejaVuSans-6c"/>
     <use xlink:href="#DejaVuSans-69" x="27.783203"/>
     <use xlink:href="#DejaVuSans-63" x="55.566406"/>
     <use xlink:href="#DejaVuSans-6b" x="110.546875"/>
     <use xlink:href="#DejaVuSans-5f" x="168.457031"/>
     <use xlink:href="#DejaVuSans-72" x="218.457031"/>
     <use xlink:href="#DejaVuSans-61" x="259.570312"/>
     <use xlink:href="#DejaVuSans-74" x="320.849609"/>
     <use xlink:href="#DejaVuSans-65" x="360.058594"/>
     <use xlink:href="#DejaVuSans-20" x="421.582031"/>
     <use xlink:href="#DejaVuSans-61" x="453.369141"/>
     <use xlink:href="#DejaVuSans-72" x="514.648438"/>
     <use xlink:href="#DejaVuSans-6f" x="553.511719"/>
     <use xlink:href="#DejaVuSans-75" x="614.693359"/>
     <use xlink:href="#DejaVuSans-6e" x="678.072266"/>
     <use xlink:href="#DejaVuSans-64" x="741.451172"/>
     <use xlink:href="#DejaVuSans-20" x="804.927734"/>
     <use xlink:href="#DejaVuSans-72" x="836.714844"/>
     <use xlink:href="#DejaVuSans-65" x="875.578125"/>
     <use xlink:href="#DejaVuSans-77" x="937.101562"/>
     <use xlink:href="#DejaVuSans-61" x="1018.888672"/>
     <use xlink:href="#DejaVuSans-72" x="1080.167969"/>
     <use xlink:href="#DejaVuSans-64" x="1119.53125"/>
     <use xlink:href="#DejaVuSans-20" x="1183.007812"/>
     <use xlink:href="#DejaVuSans-28" x="1214.794922"/>
     <use xlink:href="#DejaVuSans-74" x="1253.808594"/>
     <use xlink:href="#DejaVuSans-73" x="1293.017578"/>
     <use xlink:href="#DejaVuSans-74" x="1345.117188"/>
     <use xlink:href="#DejaVuSans-29" x="1384.326172"/>
    </g>
   </g>
   <g id="legend_1">
    <g id="patch_8">
     <path d="M 598.545455 95.234375 
L 749.69233 95.234375 
Q 751.69233 95.234375 751.69233 93.234375 
L 751.69233 50.2 
Q 751.69233 48.2 749.69233 48.2 
L 598.545455 48.2 
Q 596.545455 48.2 596.545455 50.2 
L 596.545455 93.234375 
Q 596.545455 95.234375 598.545455 95.234375 
z
" style="fill: #ffffff; opacity: 0.8; stroke: #cccccc; stroke-linejoin: miter"/>
    </g>
    <g id="line2d_28">
     <path d="M 600.545455 56.298437 
L 610.545455 56.298437 
L 620.545455 56.298437 
" style="fill: none; stroke: #5c9bd5; stroke-width: 2; stroke-linecap: square"/>
    </g>
    <g id="text_26">
     <!-- B Block 1 (X Trials 1-16) -->
     <g transform="translate(628.545455 59.798437) scale(0.1 -0.1)">
      <defs>
       <path id="DejaVuSans-42" d="M 1259 2228 
L 1259 519 
L 2272 519 
Q 2781 519 3026 730 
Q 3272 941 3272 1375 
Q 3272 1813 3026 2020 
Q 2781 2228 2272 2228 
L 1259 2228 
z
M 1259 4147 
L 1259 2741 
L 2194 2741 
Q 2656 2741 2882 2914 
Q 3109 3088 3109 3444 
Q 3109 3797 2882 3972 
Q 2656 4147 2194 4147 
L 1259 4147 
z
M 628 4666 
L 2241 4666 
Q 2963 4666 3353 4366 
Q 3744 4066 3744 3513 
Q 3744 3084 3544 2831 
Q 3344 2578 2956 2516 
Q 3422 2416 3680 2098 
Q 3938 1781 3938 1306 
Q 3938 681 3513 340 
Q 3088 0 2303 0 
L 628 0 
L 628 4666 
z
" transform="scale(0.015625)"/>
       <path id="DejaVuSans-58" d="M 403 4666 
L 1081 4666 
L 2241 2931 
L 3406 4666 
L 4084 4666 
L 2584 2425 
L 4184 0 
L 3506 0 
L 2194 1984 
L 872 0 
L 191 0 
L 1856 2491 
L 403 4666 
z
" transform="scale(0.015625)"/>
      </defs>
      <use xlink:href="#DejaVuSans-42"/>
      <use xlink:href="#DejaVuSans-20" x="68.603516"/>
      <use xlink:href="#DejaVuSans-42" x="100.390625"/>
      <use xlink:href="#DejaVuSans-6c" x="168.994141"/>
      <use xlink:href="#DejaVuSans-6f" x="196.777344"/>
      <use xlink:href="#DejaVuSans-63" x="257.958984"/>
      <use xlink:href="#DejaVuSans-6b" x="312.939453"/>
      <use xlink:href="#DejaVuSans-20" x="370.849609"/>
      <use xlink:href="#DejaVuSans-31" x="402.636719"/>
      <use xlink:href="#DejaVuSans-20" x="466.259766"/>
      <use xlink:href="#DejaVuSans-28" x="498.046875"/>
      <use xlink:href="#DejaVuSans-58" x="537.060547"/>
      <use xlink:href="#DejaVuSans-20" x="605.566406"/>
      <use xlink:href="#DejaVuSans-54" x="637.353516"/>
      <use xlink:href="#DejaVuSans-72" x="683.6875"/>
      <use xlink:href="#DejaVuSans-69" x="724.800781"/>
      <use xlink:href="#DejaVuSans-61" x="752.583984"/>
      <use xlink:href="#DejaVuSans-6c" x="813.863281"/>
      <use xlink:href="#DejaVuSans-73" x="841.646484"/>
      <use xlink:href="#DejaVuSans-20" x="893.746094"/>
      <use xlink:href="#DejaVuSans-31" x="925.533203"/>
      <use xlink:href="#DejaVuSans-2d" x="989.15625"/>
      <use xlink:href="#DejaVuSans-31" x="1025.240234"/>
      <use xlink:href="#DejaVuSans-36" x="1088.863281"/>
      <use xlink:href="#DejaVuSans-29" x="1152.486328"/>
     </g>
    </g>
    <g id="line2d_29">
     <path d="M 600.545455 70.976562 
L 610.545455 70.976562 
L 620.545455 70.976562 
" style="fill: none; stroke: #e57373; stroke-width: 2; stroke-linecap: square"/>
    </g>
    <g id="text_27">
     <!-- X Trials 1-6 -->
     <g transform="translate(628.545455 74.476562) scale(0.1 -0.1)">
      <use xlink:href="#DejaVuSans-58"/>
      <use xlink:href="#DejaVuSans-20" x="68.505859"/>
      <use xlink:href="#DejaVuSans-54" x="100.292969"/>
      <use xlink:href="#DejaVuSans-72" x="146.626953"/>
      <use xlink:href="#DejaVuSans-69" x="187.740234"/>
      <use xlink:href="#DejaVuSans-61" x="215.523438"/>
      <use xlink:href="#DejaVuSans-6c" x="276.802734"/>
      <use xlink:href="#DejaVuSans-73" x="304.585938"/>
      <use xlink:href="#DejaVuSans-20" x="356.685547"/>
      <use xlink:href="#DejaVuSans-31" x="388.472656"/>
      <use xlink:href="#DejaVuSans-2d" x="452.095703"/>
      <use xlink:href="#DejaVuSans-36" x="488.179688"/>
     </g>
    </g>
    <g id="line2d_30">
     <path d="M 600.545455 85.654687 
L 610.545455 85.654687 
L 620.545455 85.654687 
" style="fill: none; stroke-dasharray: 7.4,3.2; stroke-dashoffset: 0; stroke: #e57373; stroke-width: 2"/>
    </g>
    <g id="text_28">
     <!-- X Trials 7-12 -->
     <g transform="translate(628.545455 89.154687) scale(0.1 -0.1)">
      <defs>
       <path id="DejaVuSans-37" d="M 525 4666 
L 3525 4666 
L 3525 4397 
L 1831 0 
L 1172 0 
L 2766 4134 
L 525 4134 
L 525 4666 
z
" transform="scale(0.015625)"/>
      </defs>
      <use xlink:href="#DejaVuSans-58"/>
      <use xlink:href="#DejaVuSans-20" x="68.505859"/>
      <use xlink:href="#DejaVuSans-54" x="100.292969"/>
      <use xlink:href="#DejaVuSans-72" x="146.626953"/>
      <use xlink:href="#DejaVuSans-69" x="187.740234"/>
      <use xlink:href="#DejaVuSans-61" x="215.523438"/>
      <use xlink:href="#DejaVuSans-6c" x="276.802734"/>
      <use xlink:href="#DejaVuSans-73" x="304.585938"/>
      <use xlink:href="#DejaVuSans-20" x="356.685547"/>
      <use xlink:href="#DejaVuSans-37" x="388.472656"/>
      <use xlink:href="#DejaVuSans-2d" x="452.095703"/>
      <use xlink:href="#DejaVuSans-31" x="488.179688"/>
      <use xlink:href="#DejaVuSans-32" x="551.802734"/>
     </g>
    </g>
   </g>
  </g>
 </g>
 <defs>
  <clipPath id="p7f3fdf213d">
   <rect x="135" y="43.2" width="380.454545" height="277.2"/>
  </clipPath>
  <clipPath id="pbc23579925">
   <rect x="591.545455" y="43.2" width="380.454545" height="277.2"/>
  </clipPath>
 </defs>
</svg>
